<?xml version="1.0" standalone="no"?>
<!DOCTYPE svg PUBLIC "-//W3C//DTD SVG 1.1//EN" "http://www.w3.org/Graphics/SVG/1.1/DTD/svg11.dtd" >
<svg>
<metadata>
Created by FontForge 20090622 at Wed Feb 21 10:14:34 2018
 By deploy user
Copyright (c) 2017 by Matt Bailey. All rights reserved.
</metadata>
<defs>
<font id="SpartanMB-Regular" horiz-adv-x="693" >
  <font-face 
    font-family="Spartan MB"
    font-weight="400"
    font-stretch="normal"
    units-per-em="1000"
    panose-1="0 11 5 3 8 0 0 2 0 3"
    ascent="800"
    descent="-200"
    x-height="512"
    cap-height="825"
    bbox="-139 -294 1445 1153"
    underline-thickness="50"
    underline-position="-50"
    unicode-range="U+000D-U+FB04"
  />
<missing-glyph horiz-adv-x="342" 
 />
    <glyph glyph-name="ff" unicode="ff" horiz-adv-x="583" 
d="M56 512h54v173q0 93 40 141.5t111 48.5q55 0 96 -27l-32 -62q-24 12 -51 12q-39 0 -57.5 -26.5t-18.5 -85.5v-174h170v173q0 93 40 141.5t111 48.5q60 0 103 -32l-31 -63q-23 18 -58 18q-40 0 -58.5 -26.5t-18.5 -85.5v-174h129v-67h-129v-445h-88v445h-170v-445h-88v445
h-54v67z" />
    <glyph glyph-name="fi" unicode="fi" horiz-adv-x="537" 
d="M48 512h54v173q0 93 40 141.5t114 48.5q95 0 151 -70l-38 -56q-18 21 -46.5 35t-56.5 14q-39 0 -57.5 -26.5t-18.5 -85.5v-174h250v-512h-88v445h-162v-445h-88v445h-54v67z" />
    <glyph glyph-name="fl" unicode="fl" horiz-adv-x="547" 
d="M48 512h54v173q0 93 40 141.5t110 48.5q50 0 90 -23l-26 -66q-22 12 -50 12q-40 0 -58 -26t-18 -86v-174h128v-67h-128v-445h-88v445h-54v67zM370 860h87v-860h-87v860z" />
    <glyph glyph-name="ffi" unicode="ffi" horiz-adv-x="803" 
d="M56 512h54v173q0 93 40 141.5t111 48.5q15 0 29 -2.5t25.5 -6t19 -7t14.5 -7.5t8 -4l-32 -62q-24 12 -51 12q-39 0 -57.5 -26.5t-18.5 -85.5v-174h171v173q0 93 40 141.5t114 48.5q95 0 151 -70l-38 -56q-18 21 -46.5 35t-56.5 14q-39 0 -57.5 -26.5t-18.5 -85.5v-174
h249v-512h-88v445h-161v-445h-88v445h-171v-445h-88v445h-54v67z" />
    <glyph glyph-name="ffl" unicode="ffl" horiz-adv-x="815" 
d="M56 512h54v173q0 93 40 141.5t111 48.5q55 0 96 -27l-32 -63q-17 13 -51 13q-39 0 -57.5 -26.5t-18.5 -85.5v-174h171v173q0 93 40 141.5t110 48.5q52 0 88 -22l-24 -67q-19 12 -50 12q-40 0 -58 -26t-18 -86v-174h129v-67h-129v-445h-88v445h-171v-445h-88v445h-54v67z
M637 860h88v-860h-88v860z" />
    <glyph glyph-name="ft" unicode="ft" horiz-adv-x="602" 
d="M48 512h54v173q0 93 40 141.5t111 48.5q55 0 96 -27l-31 -63q-21 13 -52 13q-39 0 -57.5 -26.5t-18.5 -85.5v-174h180v191h88v-191h125v-67h-125v-292q0 -46 14 -68.5t46 -22.5q13 0 26 4t19 8l6 5l22 -71q-36 -24 -93 -24q-128 0 -128 155v306h-180v-445h-88v445h-54v67
z" />
    <glyph glyph-name="fj" unicode="fj" horiz-adv-x="536" 
d="M48 512h54v173q0 93 40.5 141.5t114.5 48.5q94 0 150 -70l-38 -56q-18 20 -47 34.5t-56 14.5q-39 0 -57.5 -26.5t-18.5 -85.5v-174h250v-620q0 -78 -36.5 -122.5t-107.5 -44.5q-59 0 -102 27l27 70q19 -19 57 -19q74 0 74 100v542h-162v-445h-88v445h-54v67z" />
    <glyph glyph-name="fft" unicode="fft" horiz-adv-x="868" 
d="M56 512h54v173q0 93 40 141.5t111 48.5q55 0 96 -27l-32 -62q-24 12 -51 12q-39 0 -57.5 -26.5t-18.5 -85.5v-174h171v173q0 93 40 141.5t111 48.5q56 0 96 -27l-31 -63q-21 13 -52 13q-39 0 -57.5 -26.5t-18.5 -85.5v-174h180v191h88v-191h125v-67h-125v-292
q0 -46 14 -68.5t46 -22.5q13 0 26 4t19 8l6 5l22 -71q-36 -24 -93 -24q-128 0 -128 155v306h-180v-445h-88v445h-171v-445h-88v445h-54v67z" />
    <glyph glyph-name="ffj" unicode="ffj" horiz-adv-x="803" 
d="M56 512h54v173q0 93 40 141.5t111 48.5q15 0 29 -2.5t25.5 -6t19 -7t14.5 -7.5t8 -4l-32 -62q-24 12 -51 12q-39 0 -57.5 -26.5t-18.5 -85.5v-174h171v173q0 93 40.5 141.5t114.5 48.5q94 0 150 -70l-38 -56q-18 20 -47 34.5t-56 14.5q-39 0 -57.5 -26.5t-18.5 -85.5
v-174h250v-620q0 -78 -36.5 -122.5t-107.5 -44.5q-59 0 -102 27l27 70q19 -19 57 -19q74 0 74 100v542h-162v-445h-88v445h-171v-445h-88v445h-54v67z" />
    <glyph glyph-name=".notdef" horiz-adv-x="342" 
 />
    <glyph glyph-name=".null" horiz-adv-x="0" 
 />
    <glyph glyph-name="nonmarkingreturn" horiz-adv-x="333" 
 />
    <glyph glyph-name="NULL" horiz-adv-x="0" 
 />
    <glyph glyph-name="NULL" horiz-adv-x="0" 
 />
    <glyph glyph-name="CR" unicode="&#xd;" horiz-adv-x="259" 
 />
    <glyph glyph-name="space" unicode=" " horiz-adv-x="259" 
 />
    <glyph glyph-name="exclam" unicode="!" horiz-adv-x="308" 
d="M111 860h86l-10 -651h-66zM154 106q26 0 43.5 -18t17.5 -43t-17.5 -43t-43.5 -18t-43.5 18t-17.5 43t17.5 43t43.5 18z" />
    <glyph glyph-name="quotedbl" unicode="&#x22;" horiz-adv-x="319" 
d="M49 831h90l-16 -231h-57zM180 831h90l-16 -231h-58z" />
    <glyph glyph-name="numbersign" unicode="#" horiz-adv-x="696" 
d="M69 528h135l28 212h60l-29 -212h197l28 212h60l-29 -212h95v-60h-102l-27 -196h129v-60h-136l-28 -212h-60l28 212h-196l-28 -212h-60l28 212h-93v60h101l27 196h-128v60zM256 468l-27 -196h197l26 196h-196z" />
    <glyph glyph-name="dollar" unicode="$" horiz-adv-x="652" 
d="M108 612q0 93 61 155.5t149 71.5v124h57v-125q117 -13 180 -112l-70 -44q-42 74 -137 74q-72 0 -114.5 -42t-42.5 -99q0 -50 40 -82t112 -58q59 -21 101.5 -42.5t80.5 -51t57.5 -69.5t19.5 -89q0 -105 -62.5 -166t-164.5 -71v-124h-57v122q-49 1 -88 10.5t-62.5 21
t-45.5 34.5t-32.5 38.5t-28.5 46.5l82 51q12 -23 23.5 -39.5t33 -36.5t54.5 -30.5t75 -10.5q76 0 130.5 37.5t54.5 112.5q0 62 -55.5 103.5t-168.5 82.5q-182 67 -182 207z" />
    <glyph glyph-name="percent" unicode="%" horiz-adv-x="1000" 
d="M230 0l480 825h61l-480 -825h-61zM44 642q0 87 59 142t149 55t149 -55t59 -142q0 -86 -59.5 -141.5t-148.5 -55.5t-148.5 55.5t-59.5 141.5zM107 642q0 -63 41.5 -104t103.5 -41t103.5 41t41.5 104q0 64 -41 104.5t-104 40.5t-104 -40.5t-41 -104.5zM539 181q0 87 59 142
t149 55t149 -55t59 -142q0 -86 -59.5 -141.5t-148.5 -55.5t-148.5 55.5t-59.5 141.5zM602 181q0 -63 41.5 -104t103.5 -41t103.5 41t41.5 104q0 64 -41 104.5t-104 40.5t-104 -40.5t-41 -104.5z" />
    <glyph glyph-name="ampersand" unicode="&#x26;" horiz-adv-x="774" 
d="M56 209q0 150 198 251q-35 36 -54.5 60t-36.5 60.5t-17 73.5q0 79 55.5 132.5t153.5 53.5q94 0 147.5 -56t53.5 -130q0 -123 -172 -206l205 -222q65 57 102 124l59 -51q-11 -23 -40.5 -62.5t-61.5 -71.5l152 -165h-114l-104 114q-62 -60 -126 -95t-147 -35
q-105 0 -179 59t-74 166zM237 654q0 -15 3.5 -29t11 -28t14 -24t18.5 -23t18 -19l18.5 -18l14.5 -14q73 36 107 69.5t34 85.5q0 48 -31.5 83t-89.5 35q-55 0 -86.5 -35t-31.5 -83zM156 215q0 -66 45.5 -105.5t115.5 -39.5q63 0 116.5 31.5t89.5 73.5l-219 233
q-74 -35 -111 -86t-37 -107z" />
    <glyph glyph-name="quotesingle" unicode="'" horiz-adv-x="188" 
d="M49 831h90l-16 -231h-57z" />
    <glyph glyph-name="parenleft" unicode="(" horiz-adv-x="344" 
d="M161 307q0 -93 16 -183t39 -152t46 -111t39 -73l16 -24l-57 -24l-19.5 25.5t-44 73t-55.5 118t-44 157t-20 193.5t19 192.5t45.5 159.5t53.5 116t46 75l19 25l57 -24l-16.5 -25t-37.5 -71t-47.5 -114t-37.5 -150t-17 -184z" />
    <glyph glyph-name="parenright" unicode=")" horiz-adv-x="344" 
d="M183 307q0 93 -16 183t-39 152.5t-46 111.5t-39 73l-16 24l57 24l19.5 -25.5t44 -73t55.5 -118.5t44 -157.5t20 -193.5t-19 -192.5t-45.5 -159.5t-53.5 -115.5t-46 -75.5l-19 -24l-57 24l16.5 25t37.5 70.5t47.5 113.5t37.5 150t17 184z" />
    <glyph glyph-name="asterisk" unicode="*" horiz-adv-x="312" 
d="M135 860h43v-94l90 28l13 -39l-91 -31l54 -78l-32 -23l-56 75l-56 -75l-32 23l54 78l-91 31l13 39l91 -28v94z" />
    <glyph glyph-name="plus" unicode="+" horiz-adv-x="628" 
d="M276 670h76v-218h218v-76h-218v-218h-76v218h-218v76h218v218z" />
    <glyph glyph-name="comma" unicode="," horiz-adv-x="236" 
d="M118 106q26 0 43.5 -18t17.5 -44q0 -97 -90 -175l-24 20q0 1 4.5 7.5l8 11.5t8.5 14.5t8.5 18.5t7 21.5t4.5 24.5q-21 4 -35 20t-14 37q0 26 17.5 44t43.5 18z" />
    <glyph glyph-name="hyphen" unicode="-" horiz-adv-x="456" 
d="M67 327h322v-75h-322v75z" />
    <glyph glyph-name="period" unicode="." horiz-adv-x="236" 
d="M118 106q26 0 43.5 -18t17.5 -43t-17.5 -43t-43.5 -18t-43.5 18t-17.5 43t17.5 43t43.5 18z" />
    <glyph glyph-name="slash" unicode="/" horiz-adv-x="505" 
d="M10 -120l412 980h73l-412 -980h-73z" />
    <glyph glyph-name="zero" unicode="0" horiz-adv-x="802" 
d="M157 412q0 -165 68.5 -255.5t175.5 -90.5t175.5 90.5t68.5 255.5t-68.5 255.5t-175.5 90.5t-175.5 -90.5t-68.5 -255.5zM65 412q0 104 27.5 187.5t74.5 135t106.5 78.5t127.5 27t127.5 -27t106.5 -78.5t74.5 -135t27.5 -187.5t-27.5 -187.5t-74.5 -135t-106.5 -78.5
t-127.5 -27t-127.5 27t-106.5 78.5t-74.5 135t-27.5 187.5z" />
    <glyph glyph-name="one" unicode="1" horiz-adv-x="278" 
d="M6 825h179v-825h-92v734h-87v91z" />
    <glyph glyph-name="two" unicode="2" horiz-adv-x="745" 
d="M87 585q0 34 19.5 77t53.5 83.5t89 67.5t118 27q72 0 129 -24.5t90.5 -65t50.5 -88t17 -97.5q0 -59 -30 -119t-89 -120.5t-111.5 -105.5l-129.5 -106q-28 -21 -41 -32h416v-82h-593v44l61 47.5l75.5 58.5l77.5 63.5t80 70t70 70.5t60 73.5t38.5 70t15.5 67.5
q0 74 -50.5 133.5t-136.5 59.5q-79 0 -139 -69.5t-60 -133.5z" />
    <glyph glyph-name="three" unicode="3" horiz-adv-x="642" 
d="M86 640q2 33 17 66t42 64t73.5 50.5t104.5 19.5q100 0 168 -64.5t68 -159.5q0 -63 -33.5 -113.5t-86.5 -73.5q62 -22 99 -78t37 -127q0 -105 -71 -172.5t-191 -67.5q-68 0 -120 19t-82.5 52t-46.5 67.5t-22 73.5l87 34q10 -73 53.5 -117.5t129.5 -44.5q79 0 124 43.5
t45 112.5q0 72 -49.5 121t-118.5 49l-30 -4v67h29q66 0 113.5 46t47.5 113q0 61 -44.5 104t-107.5 43q-69 0 -110.5 -43t-48.5 -108z" />
    <glyph glyph-name="four" unicode="4" horiz-adv-x="590" 
d="M-7 257v38l389 530h92v-487h96v-81h-96v-257h-88v257h-393zM115 338h271v362z" />
    <glyph glyph-name="five" unicode="5" horiz-adv-x="680" 
d="M154 825h421v-81h-345l-35 -227q43 29 132 29q84 0 150 -29.5t108.5 -97t42.5 -164.5q0 -120 -81 -195.5t-218 -75.5q-113 0 -186.5 53t-100.5 126l74 36q19 -56 74.5 -96.5t138.5 -40.5q98 0 153 54t55 142q0 103 -71 160.5t-176 57.5q-116 0 -204 -84z" />
    <glyph glyph-name="six" unicode="6" horiz-adv-x="695" 
d="M52 263q0 73 24.5 130.5t70.5 116.5l263 315h114l-254 -301q44 25 98 25q110 0 192.5 -79.5t82.5 -206.5q0 -126 -85 -202.5t-208 -76.5q-128 0 -213 80t-85 199zM146 263q0 -87 56.5 -144t144.5 -57q89 0 147 57t58 144q0 89 -59 147.5t-146 58.5q-83 0 -142 -60.5
t-59 -145.5z" />
    <glyph glyph-name="seven" unicode="7" horiz-adv-x="590" 
d="M66 825h534v-30l-436 -795h-108l409 744h-399v81z" />
    <glyph glyph-name="eight" unicode="8" horiz-adv-x="648" 
d="M176 621q0 -65 42 -106.5t106 -41.5t106 41.5t42 106.5t-42.5 107.5t-105.5 42.5t-105.5 -42.5t-42.5 -107.5zM153 230q0 -73 48.5 -119.5t122.5 -46.5t122.5 46.5t48.5 119.5t-49.5 120t-121.5 47t-121.5 -47t-49.5 -120zM97 631q0 88 66.5 148.5t160.5 60.5
t160.5 -60.5t66.5 -148.5q0 -138 -112 -191q67 -27 105.5 -84t38.5 -137q0 -102 -74 -168.5t-185 -66.5t-185 66.5t-74 168.5q0 80 38.5 137t105.5 84q-112 53 -112 191z" />
    <glyph glyph-name="nine" unicode="9" horiz-adv-x="695" 
d="M52 561q0 126 85 202.5t208 76.5q128 0 213 -80t85 -199q0 -73 -24.5 -130.5t-70.5 -116.5l-263 -314h-114l254 300q-44 -25 -98 -25q-110 0 -192.5 79.5t-82.5 206.5zM143 561q0 -89 59 -147.5t146 -58.5q83 0 142 60.5t59 145.5q0 87 -56.5 144t-144.5 57
q-89 0 -147 -57t-58 -144z" />
    <glyph glyph-name="colon" unicode=":" horiz-adv-x="236" 
d="M118 106q26 0 43.5 -18t17.5 -43t-17.5 -43t-43.5 -18t-43.5 18t-17.5 43t17.5 43t43.5 18zM118 555q26 0 43.5 -17.5t17.5 -43.5t-17.5 -43.5t-43.5 -17.5t-43.5 17.5t-17.5 43.5t17.5 43.5t43.5 17.5z" />
    <glyph glyph-name="semicolon" unicode=";" horiz-adv-x="236" 
d="M118 106q26 0 43.5 -18t17.5 -44q0 -97 -90 -175l-24 20q0 1 4.5 7.5l8 11.5t8.5 14.5t8.5 18.5t7 21.5t4.5 24.5q-21 4 -35 20t-14 37q0 26 17.5 44t43.5 18zM118 555q26 0 43.5 -17.5t17.5 -43.5t-17.5 -43.5t-43.5 -17.5t-43.5 17.5t-17.5 43.5t17.5 43.5t43.5 17.5z
" />
    <glyph glyph-name="less" unicode="&#x3c;" horiz-adv-x="625" 
d="M27 445l547 252v-73l-453 -208l453 -208v-73l-547 252v58z" />
    <glyph glyph-name="equal" unicode="=" horiz-adv-x="618" 
d="M53 555h512v-76h-512v76zM53 350h512v-76h-512v76z" />
    <glyph glyph-name="greater" unicode="&#x3e;" horiz-adv-x="625" 
d="M598 445v-58l-547 -252v73l453 208l-453 208v73z" />
    <glyph glyph-name="question" unicode="?" horiz-adv-x="583" 
d="M31 608q5 100 72.5 166t181.5 66q118 0 187.5 -74.5t69.5 -171.5q0 -92 -61 -164.5t-172 -82.5v-128h-82v207q17 -5 50 -5q87 0 134 50t47 123q0 72 -46 119t-127 47q-82 0 -128.5 -45t-50.5 -120zM268 106q26 0 43.5 -18t17.5 -43t-17.5 -43t-43.5 -18t-43.5 18
t-17.5 43t17.5 43t43.5 18z" />
    <glyph glyph-name="at" unicode="@" horiz-adv-x="956" 
d="M54 412q0 183 125.5 305.5t304.5 122.5q175 0 297 -119t122 -297q0 -98 -38.5 -154.5t-104.5 -56.5q-77 0 -117 61q-29 -53 -78.5 -84t-113.5 -31q-98 0 -163.5 69t-65.5 175t65.5 175.5t163.5 69.5q62 0 111 -28.5t77 -78.5v93h65v-283q0 -32 16 -53.5t49 -21.5
q35 0 52 33t17 115q0 148 -103 247.5t-252 99.5q-146 0 -249.5 -104.5t-103.5 -254.5q0 -151 101 -253t252 -102q92 0 160 36.5t103 88.5l62 -38q-42 -62 -125 -111t-199 -49q-184 0 -307 122t-123 306zM300 404q0 -79 48.5 -129.5t122.5 -50.5t122 50.5t48 129.5t-48.5 130
t-121.5 51q-74 0 -122.5 -51t-48.5 -130z" />
    <glyph glyph-name="A" unicode="A" horiz-adv-x="716" 
d="M316 825h84l326 -825h-99l-94 249h-350l-94 -249h-99zM215 330h286l-143 373z" />
    <glyph glyph-name="B" unicode="B" horiz-adv-x="651" 
d="M94 825h186q119 0 186.5 -52.5t67.5 -156.5q0 -135 -117 -185q91 -12 140.5 -65t49.5 -145q0 -102 -68.5 -161.5t-191.5 -59.5h-253v825zM186 753v-292h73q187 0 187 147q0 71 -48.5 107.5t-138.5 37.5h-73zM186 380v-306h134q92 0 142 38.5t50 111.5q0 76 -50 116
t-142 40h-134z" />
    <glyph glyph-name="C" unicode="C" horiz-adv-x="797" 
d="M54 412q0 179 126 303.5t309 124.5q162 0 268 -84l-42 -77q-35 28 -91.5 49t-122.5 21q-157 0 -252 -98.5t-95 -238.5t95 -238.5t252 -98.5q66 0 122.5 21t91.5 49l42 -77q-106 -84 -268 -84q-183 0 -309 124.5t-126 303.5z" />
    <glyph glyph-name="D" unicode="D" horiz-adv-x="757" 
d="M94 825h193q172 0 294 -117.5t122 -294.5q0 -178 -121.5 -295.5t-294.5 -117.5h-193v825zM186 743v-661h92q138 0 232.5 94.5t95.5 236.5q0 141 -95 235.5t-233 94.5h-92z" />
    <glyph glyph-name="E" unicode="E" horiz-adv-x="578" 
d="M94 825h424v-81h-332v-290h320v-81h-320v-292h332v-81h-424v825z" />
    <glyph glyph-name="F" unicode="F" horiz-adv-x="578" 
d="M94 825h426v-81h-334v-290h311v-81h-311v-373h-92v825z" />
    <glyph glyph-name="G" unicode="G" horiz-adv-x="887" 
d="M54 411q0 180 115 304.5t287 124.5q201 0 318 -141l-60 -66q-93 124 -254 124q-131 0 -219.5 -100.5t-88.5 -245.5q0 -142 90.5 -242.5t217.5 -100.5q113 0 198 70t85 181v24h-287v74h381v-80q0 -155 -109 -254t-272 -99q-167 0 -284.5 125t-117.5 302z" />
    <glyph glyph-name="H" unicode="H" horiz-adv-x="796" 
d="M94 825h92v-371h424v371h92v-825h-92v373h-424v-373h-92v825z" />
    <glyph glyph-name="I" unicode="I" horiz-adv-x="280" 
d="M94 825h92v-825h-92v825z" />
    <glyph glyph-name="J" unicode="J" horiz-adv-x="511" 
d="M335 825h92v-593q0 -121 -66.5 -184.5t-190.5 -63.5q-52 0 -100.5 20t-70.5 40l-22 19l31 82l8 -8t21.5 -17.5t33.5 -22t41 -17.5t47 -8q176 0 176 187v566z" />
    <glyph glyph-name="K" unicode="K" horiz-adv-x="690" 
d="M94 825h92v-385l361 385h111l-370 -396l412 -429h-127l-348 362l-39 -42v-320h-92v825z" />
    <glyph glyph-name="L" unicode="L" horiz-adv-x="555" 
d="M94 825h92v-744h336v-81h-428v825z" />
    <glyph glyph-name="M" unicode="M" horiz-adv-x="948" 
d="M142 825h98l234 -621l234 621h98l102 -825h-92l-84 656l-226 -614h-64l-226 614l-84 -656h-92z" />
    <glyph glyph-name="N" unicode="N" horiz-adv-x="800" 
d="M94 825h92l428 -669v669h92v-825h-92l-428 669v-669h-92v825z" />
    <glyph glyph-name="O" unicode="O" horiz-adv-x="940" 
d="M153 412q0 -141 90 -240t227 -99t227 99t90 240t-90 240t-227 99t-227 -99t-90 -240zM54 412q0 179 119.5 303.5t296.5 124.5t296.5 -124.5t119.5 -303.5t-119.5 -303.5t-296.5 -124.5t-296.5 124.5t-119.5 303.5z" />
    <glyph glyph-name="P" unicode="P" horiz-adv-x="640" 
d="M94 825h226q123 0 194.5 -62.5t71.5 -173.5t-72.5 -178.5t-193.5 -67.5h-134v-343h-92v825zM186 751v-332h110q89 0 142 45t53 123t-53 121t-142 43h-110z" />
    <glyph glyph-name="Q" unicode="Q" horiz-adv-x="942" 
d="M55 412q0 180 122 304t294 124t294 -124t122 -304q0 -176 -109 -296q81 -45 137 -60l-40 -82q-73 24 -163 84q-104 -73 -241 -74q-181 1 -298.5 123.5t-117.5 304.5zM154 412q0 -144 86.5 -241.5t230.5 -97.5q93 0 164 43q-69 56 -147 136l40 49q53 -62 168 -137
q92 97 92 248q0 141 -90.5 240t-226.5 99t-226.5 -99t-90.5 -240z" />
    <glyph glyph-name="R" unicode="R" horiz-adv-x="645" 
d="M94 825h226q123 0 194.5 -62.5t71.5 -173.5q0 -98 -57.5 -162.5t-157.5 -76.5l274 -350h-117l-261 343h-81v-343h-92v825zM186 751v-332h110q89 0 142 45t53 123t-53 121t-142 43h-110z" />
    <glyph glyph-name="S" unicode="S" horiz-adv-x="653" 
d="M108 612q0 99 69 163.5t165 64.5q141 0 213 -114l-70 -44q-42 74 -137 74q-72 0 -114.5 -42t-42.5 -99q0 -50 40 -82t112 -58q59 -21 101.5 -42.5t80.5 -51t57.5 -69.5t19.5 -89q0 -115 -74.5 -177t-192.5 -62q-97 0 -167 40t-107 111l76 47q26 -51 79 -82t113 -31
q76 0 130.5 37.5t54.5 112.5q0 62 -55.5 103.5t-168.5 82.5q-182 67 -182 207z" />
    <glyph glyph-name="T" unicode="T" horiz-adv-x="586" 
d="M3 825h580v-81h-243v-744h-92v744h-245v81z" />
    <glyph glyph-name="U" unicode="U" horiz-adv-x="750" 
d="M574 825h92v-530q0 -153 -74.5 -232t-216.5 -79t-216.5 79t-74.5 232v530h92v-508q0 -124 49 -183t150 -59t150 59t49 183v508z" />
    <glyph glyph-name="V" unicode="V" horiz-adv-x="744" 
d="M-10 825h104l278 -687l278 687h104l-346 -825h-72z" />
    <glyph glyph-name="W" unicode="W" horiz-adv-x="1106" 
d="M-10 825h101l197 -703l230 703h70l230 -703l197 703h101l-243 -825h-103l-217 645l-217 -645h-103z" />
    <glyph glyph-name="X" unicode="X" horiz-adv-x="724" 
d="M40 825h110l212 -302l212 302h110l-265 -380l315 -445h-115l-257 365l-257 -365h-115l315 445z" />
    <glyph glyph-name="Y" unicode="Y" horiz-adv-x="644" 
d="M-10 825h111l221 -369l221 369h111l-286 -466v-359h-92v359z" />
    <glyph glyph-name="Z" unicode="Z" horiz-adv-x="758" 
d="M93 825h629l-521 -742h493v-83h-658l521 742h-464v83z" />
    <glyph glyph-name="bracketleft" unicode="[" horiz-adv-x="333" 
d="M94 860h226v-64h-148v-992h148v-64h-226v1120z" />
    <glyph glyph-name="backslash" unicode="\" horiz-adv-x="504" 
d="M9 860h73l412 -860h-73z" />
    <glyph glyph-name="bracketright" unicode="]" horiz-adv-x="333" 
d="M13 860h226v-1120h-226v64h148v992h-148v64z" />
    <glyph glyph-name="asciicircum" unicode="^" horiz-adv-x="455" 
d="M251 840l207 -235h-79l-151 174l-151 -174h-79l207 235h46z" />
    <glyph glyph-name="underscore" unicode="_" horiz-adv-x="513" 
d="M0 -54h513v-46h-513v46z" />
    <glyph glyph-name="grave" unicode="`" horiz-adv-x="305" 
d="M54 775l49 65l149 -121l-31 -44z" />
    <glyph glyph-name="a" unicode="a" 
d="M54 256q0 117 73 194.5t183 77.5q67 0 120.5 -30.5t84.5 -83.5v98h88v-512h-88v101q-31 -54 -85 -85.5t-120 -31.5q-110 0 -183 77.5t-73 194.5zM146 256q0 -85 52.5 -140.5t133.5 -55.5t133.5 55.5t52.5 140.5q0 86 -52.5 141t-133.5 55q-80 0 -133 -55t-53 -141z" />
    <glyph glyph-name="b" unicode="b" 
d="M90 0v860h88v-446q31 53 84.5 83.5t120.5 30.5q110 0 183 -77.5t73 -194.5t-73 -194.5t-183 -77.5q-66 0 -120 31.5t-85 85.5v-101h-88zM547 256q0 86 -53 141t-133 55q-81 0 -133.5 -55t-52.5 -141q0 -85 52.5 -140.5t133.5 -55.5t133.5 55.5t52.5 140.5z" />
    <glyph glyph-name="c" unicode="c" horiz-adv-x="553" 
d="M51 256q0 116 81 194t196 78q120 0 175 -55l-41 -65q-33 36 -124 36q-85 0 -141 -52t-56 -136t56 -136t141 -52q92 0 123 36l42 -66q-57 -54 -175 -54q-115 0 -196 78.5t-81 193.5z" />
    <glyph glyph-name="d" unicode="d" 
d="M54 256q0 117 73 194.5t183 77.5q67 0 120.5 -30.5t84.5 -83.5v446h88v-860h-88v101q-31 -54 -85 -85.5t-120 -31.5q-110 0 -183 77.5t-73 194.5zM146 256q0 -85 52.5 -140.5t133.5 -55.5t133.5 55.5t52.5 140.5q0 86 -52.5 141t-133.5 55q-80 0 -133 -55t-53 -141z" />
    <glyph glyph-name="e" unicode="e" horiz-adv-x="640" 
d="M51 256q0 113 79 192.5t191 79.5q114 0 191 -76t77 -196v-10h-449q0 -85 56 -137.5t136 -52.5q113 0 176 89l65 -34q-78 -127 -246 -127q-116 0 -196 78t-80 194zM142 301h361q-7 71 -57.5 113t-122.5 42q-74 0 -124 -43t-57 -112z" />
    <glyph glyph-name="f" unicode="f" horiz-adv-x="316" 
d="M48 512h54v173q0 93 40 141.5t111 48.5q60 0 103 -32l-31 -63q-21 18 -59 18q-39 0 -57.5 -26.5t-18.5 -85.5v-174h129v-67h-129v-445h-88v445h-54v67z" />
    <glyph glyph-name="g" unicode="g" 
d="M54 256q0 117 73 194.5t183 77.5q67 0 120.5 -30.5t84.5 -83.5v98h88v-526q0 -125 -74 -193t-206 -68q-200 0 -266 149l73 34q22 -47 72.5 -77.5t120.5 -30.5q85 0 138.5 50.5t53.5 135.5v115q-31 -54 -85 -85.5t-120 -31.5q-110 0 -183 77.5t-73 194.5zM146 256
q0 -85 52.5 -140.5t133.5 -55.5t133.5 55.5t52.5 140.5q0 86 -52.5 141t-133.5 55q-80 0 -133 -55t-53 -141z" />
    <glyph glyph-name="h" unicode="h" horiz-adv-x="626" 
d="M90 860h88v-415q24 39 68.5 61t89.5 22q95 0 151.5 -53t56.5 -148v-327h-88v303q0 72 -35 113.5t-102 41.5q-61 0 -101 -40t-40 -91v-327h-88v860z" />
    <glyph glyph-name="i" unicode="i" horiz-adv-x="268" 
d="M90 512h88v-512h-88v512zM134 733q26 0 43.5 -17.5t17.5 -43.5t-17.5 -43.5t-43.5 -17.5t-43.5 17.5t-17.5 43.5t17.5 43.5t43.5 17.5z" />
    <glyph glyph-name="j" unicode="j" horiz-adv-x="268" 
d="M90 512h88v-620q0 -78 -36.5 -122.5t-107.5 -44.5q-59 0 -102 27l27 70q19 -19 57 -19q74 0 74 100v609zM134 733q26 0 43.5 -17.5t17.5 -43.5t-17.5 -43.5t-43.5 -17.5t-43.5 17.5t-17.5 43.5t17.5 43.5t43.5 17.5z" />
    <glyph glyph-name="k" unicode="k" horiz-adv-x="512" 
d="M90 860h88v-547l177 199h113l-188 -207l253 -305h-111l-198 243l-46 -50v-193h-88v860z" />
    <glyph glyph-name="l" unicode="l" horiz-adv-x="268" 
d="M90 860h88v-860h-88v860z" />
    <glyph glyph-name="m" unicode="m" horiz-adv-x="973" 
d="M90 512h88v-67q27 39 71 61t88 22q136 0 181 -106q30 48 76.5 77t98.5 29q94 0 146 -52.5t52 -148.5v-327h-88v303q0 71 -34.5 112t-102.5 41q-55 0 -93.5 -38t-38.5 -75v-343h-87v303q0 71 -34.5 112t-102.5 41q-56 0 -94 -39t-38 -77v-340h-88v512z" />
    <glyph glyph-name="n" unicode="n" horiz-adv-x="626" 
d="M90 512h88v-67q24 39 68.5 61t89.5 22q95 0 151.5 -53t56.5 -148v-327h-88v303q0 72 -35 113.5t-102 41.5q-61 0 -101 -40t-40 -91v-327h-88v512z" />
    <glyph glyph-name="o" unicode="o" horiz-adv-x="675" 
d="M141 256q0 -86 55.5 -141t140.5 -55t140.5 55t55.5 141t-55.5 141t-140.5 55t-140.5 -55t-55.5 -141zM51 256q0 120 81.5 196t204.5 76t204.5 -76t81.5 -196t-81.5 -196t-204.5 -76t-204.5 76t-81.5 196z" />
    <glyph glyph-name="p" unicode="p" 
d="M90 512h88v-98q31 53 84.5 83.5t120.5 30.5q110 0 183 -77.5t73 -194.5t-73 -194.5t-183 -77.5q-66 0 -120 31.5t-85 85.5v-361h-88v772zM175 256q0 -85 52.5 -140.5t133.5 -55.5t133.5 55.5t52.5 140.5q0 86 -53 141t-133 55q-81 0 -133.5 -55t-52.5 -141z" />
    <glyph glyph-name="q" unicode="q" 
d="M54 256q0 117 73 194.5t183 77.5q67 0 120.5 -30.5t84.5 -83.5v98h88v-772h-88v361q-31 -54 -85 -85.5t-120 -31.5q-110 0 -183 77.5t-73 194.5zM146 256q0 -85 52.5 -140.5t133.5 -55.5t133.5 55.5t52.5 140.5q0 86 -52.5 141t-133.5 55q-80 0 -133 -55t-53 -141z" />
    <glyph glyph-name="r" unicode="r" horiz-adv-x="418" 
d="M90 512h88v-75q17 35 58 63t93 28q37 0 93 -20l-37 -74q-47 17 -78 17q-62 0 -95.5 -43.5t-33.5 -79.5v-328h-88v512z" />
    <glyph glyph-name="s" unicode="s" horiz-adv-x="479" 
d="M253 528q59 0 96 -23.5t52 -57.5l-55 -35q-26 51 -93 51q-48 0 -76 -20t-28 -51q0 -29 29 -48.5t86 -36.5q167 -51 167 -165q0 -85 -58 -121.5t-140 -36.5q-142 0 -187 111l60 38q15 -37 50 -59.5t77 -22.5q48 0 83 21t35 68q0 38 -40 64.5t-110 47.5q-52 16 -88.5 49
t-36.5 87q0 62 47.5 101t129.5 39z" />
    <glyph glyph-name="t" unicode="t" horiz-adv-x="335" 
d="M48 512h55v191h88v-191h125v-67h-125v-293q0 -90 60 -90q13 0 26 4t19 8l6 5l22 -71q-36 -24 -93 -24q-128 0 -128 155v306h-55v67z" />
    <glyph glyph-name="u" unicode="u" horiz-adv-x="614" 
d="M82 512h88v-281q0 -99 33.5 -136.5t103.5 -37.5t103.5 37.5t33.5 136.5v281h88v-298q0 -124 -54.5 -177t-170.5 -53t-170.5 53t-54.5 177v298z" />
    <glyph glyph-name="v" unicode="v" horiz-adv-x="553" 
d="M-5 512h103l179 -389l179 389h103l-252 -512h-60z" />
    <glyph glyph-name="w" unicode="w" horiz-adv-x="920" 
d="M-5 512h100l179 -389l156 389h60l156 -389l179 389h100l-252 -512h-59l-154 379l-154 -379h-59z" />
    <glyph glyph-name="x" unicode="x" horiz-adv-x="554" 
d="M34 512h102l141 -186l141 186h102l-188 -247l217 -265h-105l-167 207l-167 -207h-105l217 265z" />
    <glyph glyph-name="y" unicode="y" horiz-adv-x="560" 
d="M-5 512h101l194 -401l174 401h101l-360 -772h-99l133 282z" />
    <glyph glyph-name="z" unicode="z" horiz-adv-x="563" 
d="M62 512h478l-361 -441h349v-71h-505l361 441h-322v71z" />
    <glyph glyph-name="braceleft" unicode="{" horiz-adv-x="334" 
d="M74 326q48 0 48 52v301q0 34 7 63.5t24 57.5t49.5 44t78.5 16h47v-68h-25q-50 0 -76.5 -31t-26.5 -88v-307q0 -47 -33 -66q33 -19 33 -66v-307q0 -57 26.5 -88t76.5 -31h25v-68h-47q-46 0 -78.5 16t-49.5 44t-24 57.5t-7 63.5v301q0 52 -48 52v52z" />
    <glyph glyph-name="bar" unicode="|" horiz-adv-x="265" 
d="M94 860h78v-860h-78v860z" />
    <glyph glyph-name="braceright" unicode="}" horiz-adv-x="334" 
d="M6 860h48q46 0 78.5 -16t49.5 -44t24 -57.5t7 -63.5v-301q0 -52 48 -52v-52q-48 0 -48 -52v-301q0 -34 -7 -63.5t-24 -57.5t-49.5 -44t-78.5 -16h-48v68h25q51 0 77.5 31t26.5 88v307q0 48 33 66q-33 18 -33 66v307q0 57 -26.5 88t-77.5 31h-25v68z" />
    <glyph glyph-name="asciitilde" unicode="~" horiz-adv-x="656" 
d="M69 389q65 107 154 107q61 0 125 -48q44 -35 85 -35q61 0 105 78l49 -43q-65 -107 -154 -107q-61 0 -125 48q-44 35 -85 35q-61 0 -105 -78z" />
    <glyph glyph-name="exclamdown" unicode="&#xa1;" horiz-adv-x="308" 
d="M197 -260h-86l10 651h66zM154 494q-26 0 -43.5 18t-17.5 43t17.5 43t43.5 18t43.5 -18t17.5 -43t-17.5 -43t-43.5 -18z" />
    <glyph glyph-name="cent" unicode="&#xa2;" horiz-adv-x="553" 
d="M51 256q0 100 62 173.5t158 92.5v114h57v-108q128 0 175 -55l-41 -65q-33 36 -124 36q-85 0 -141 -52t-56 -136t56 -136t141 -52q92 0 123 36l42 -66q-42 -47 -149 -53v-114h-57v115q-105 11 -175.5 87t-70.5 183z" />
    <glyph glyph-name="sterling" unicode="&#xa3;" horiz-adv-x="756" 
d="M66 362h134q-36 51 -54 96.5t-18 111.5q0 116 74.5 193t194.5 77q69 0 123 -22.5t84 -57.5t46 -65.5t22 -58.5l-78 -34q-4 19 -12 38.5t-23.5 43t-36.5 41t-53.5 29.5t-71.5 12q-80 0 -129.5 -56t-49.5 -140q0 -30 3.5 -55.5t13 -49t15 -35.5t20.5 -37t18 -31h235v-53
h-213q16 -41 16 -77q0 -44 -25 -106q29 0 102.5 -34t126.5 -34q51 0 81 38t34 76l70 -35q-3 -20 -14.5 -44.5t-32 -49.5t-54.5 -41.5t-75 -16.5q-54 0 -107 20t-100 40t-86 20q-42 0 -67.5 -20.5t-34.5 -44.5h-57q6 43 46 86t96 46q21 44 21 97q0 36 -22 80h-162v53z" />
    <glyph glyph-name="yen" unicode="&#xa5;" horiz-adv-x="663" 
d="M-2 825h111l221 -369l221 369h111l-263 -428h176v-67h-199v-112h199v-67h-199v-151h-92v151h-200v67h200v112h-200v67h176z" />
    <glyph glyph-name="brokenbar" unicode="&#xa6;" horiz-adv-x="265" 
d="M94 860h78v-332h-78v332zM94 332h78v-332h-78v332z" />
    <glyph glyph-name="section" unicode="&#xa7;" horiz-adv-x="640" 
d="M81 315q1 51 30.5 91.5t74.5 59.5q-89 60 -89 164q0 90 62.5 150t167.5 60q42 0 78 -12.5t57.5 -28.5t39.5 -38.5t25.5 -36t13.5 -28.5l-78 -20q-13 32 -46.5 60.5t-89.5 28.5q-64 0 -103 -40t-39 -93q0 -52 46 -87t132 -65q114 -41 168.5 -91.5t54.5 -123.5
q-1 -47 -31.5 -88t-75.5 -61q92 -66 92 -175q0 -92 -67.5 -154t-192.5 -62q-56 0 -103 18t-74 41t-47.5 52.5t-27.5 45.5t-10 27l78 20q4 -12 14.5 -29t31 -42t57.5 -41.5t81 -16.5q76 0 125.5 37.5t49.5 101.5q0 58 -52 98.5t-158 77.5q-99 36 -147 84t-48 116zM159 327
q1 -44 39.5 -73.5t109.5 -54.5q69 -24 112 -49q35 10 60.5 38.5t26.5 64.5q-1 48 -48.5 83t-143.5 68q-38 12 -71 29q-33 -10 -58.5 -39t-26.5 -67z" />
    <glyph glyph-name="dieresis" unicode="&#xa8;" horiz-adv-x="480" 
d="M123 750q21 0 36 -15t15 -36t-15 -36t-36 -15t-36 15t-15 36t15 36t36 15zM357 750q21 0 36 -15t15 -36t-15 -36t-36 -15t-36 15t-15 36t15 36t36 15z" />
    <glyph glyph-name="copyright" unicode="&#xa9;" horiz-adv-x="948" 
d="M54 412q0 179 123.5 303.5t296.5 124.5q175 0 298 -124.5t123 -303.5q0 -180 -122 -304t-299 -124q-179 0 -299.5 124t-120.5 304zM117 412q0 -154 102.5 -260t254.5 -106q150 0 253.5 106.5t103.5 259.5t-104.5 259.5t-252.5 106.5q-147 0 -252 -106.5t-105 -259.5z
M229 412q0 105 73.5 176t178.5 71q117 0 159 -49l-37 -60q-28 33 -113 33q-78 0 -128.5 -47t-50.5 -124q0 -76 50.5 -123t128.5 -47q85 0 112 32l38 -59q-43 -50 -159 -50q-104 0 -178 71.5t-74 175.5z" />
    <glyph glyph-name="ordfeminine" unicode="&#xaa;" horiz-adv-x="470" 
d="M61 672q0 72 45 120t113 48q86 0 127 -70v60h54v-316h-54v62q-42 -72 -127 -72q-68 0 -113 48t-45 120zM118 672q0 -53 32.5 -87t82.5 -34t82.5 34t32.5 87t-32.5 87t-82.5 34q-49 0 -82 -34t-33 -87z" />
    <glyph glyph-name="guillemotleft" unicode="&#xab;" horiz-adv-x="550" 
d="M214 528l51 -40l-164 -210l164 -210l-51 -40l-195 250zM464 528l51 -40l-164 -210l164 -210l-51 -40l-195 250z" />
    <glyph glyph-name="registered" unicode="&#xae;" horiz-adv-x="510" 
d="M31 615q0 93 65.5 159t157.5 66q94 0 159.5 -66t65.5 -159q0 -92 -65.5 -157.5t-159.5 -65.5q-92 0 -157.5 65.5t-65.5 157.5zM63 615q0 -79 56 -135t135 -56t135.5 56t56.5 135q0 80 -56.5 136.5t-135.5 56.5t-135 -56.5t-56 -136.5zM186 751h60q40 0 63 -20t23 -56
q0 -32 -19.5 -53t-52.5 -25l90 -116h-32l-87 114h-19v-114h-26v270zM212 731v-114h28q30 0 48 15.5t18 42.5q0 26 -18 41t-48 15h-28z" />
    <glyph glyph-name="macron" unicode="&#xaf;" horiz-adv-x="548" 
d="M70 725h408v-62h-408v62z" />
    <glyph glyph-name="degree" unicode="&#xb0;" horiz-adv-x="308" 
d="M47 772q0 45 30.5 74t76.5 29t76.5 -29t30.5 -74t-30 -74t-77 -29q-48 0 -77.5 29t-29.5 74zM90 772q0 -29 18 -47.5t46 -18.5t46 18.5t18 47.5q0 28 -18 46.5t-46 18.5q-27 0 -45.5 -18.5t-18.5 -46.5z" />
    <glyph glyph-name="plusminus" unicode="&#xb1;" horiz-adv-x="654" 
d="M289 670h76v-208h218v-76h-218v-208h-76v208h-218v76h218v208zM71 76h512v-76h-512v76z" />
    <glyph glyph-name="twosuperior" unicode="&#xb2;" horiz-adv-x="274" 
d="M37 741q0 31 31 65t77 34q54 0 83 -32.5t29 -74.5q0 -23 -10.5 -45.5t-37.5 -49.5t-40 -38.5t-52 -41.5l-16 -13h161v-32h-230v17q6 5 32.5 25.5l41.5 32.5t39.5 34.5t38 38.5t24 36t10.5 36q0 29 -19.5 52t-53.5 23q-30 0 -53.5 -27t-23.5 -52z" />
    <glyph glyph-name="threesuperior" unicode="&#xb3;" horiz-adv-x="247" 
d="M39 763q2 28 25 52.5t66 24.5q38 0 64 -25t26 -61q0 -24 -13 -43.5t-33 -27.5q24 -8 38 -29.5t14 -48.5q0 -40 -27 -66t-73 -26q-50 0 -74.5 24t-29.5 57l33 13q9 -62 70 -62q31 0 48 16.5t17 43.5t-19 46t-45 19l-12 -2v26h11q26 0 44 17.5t18 42.5q0 24 -17 40t-41 16
q-27 0 -43 -16t-18 -41z" />
    <glyph glyph-name="acute" unicode="&#xb4;" horiz-adv-x="376" 
d="M89 719l149 121l49 -65l-167 -100z" />
    <glyph glyph-name="mu" unicode="&#xb5;" horiz-adv-x="647" 
d="M103 512h87v-303q0 -72 35.5 -113.5t102.5 -41.5q60 0 100 40t40 91v327h88v-512h-88v67q-24 -39 -68.5 -61t-89.5 -22q-82 0 -120 51v-195h-108q0 76 10.5 189t10.5 188v295z" />
    <glyph glyph-name="paragraph" unicode="&#xb6;" horiz-adv-x="656" 
d="M54 589q0 105 69 170.5t188 65.5h252v-825h-58v769h-40v-769h-58v343h-96q-117 0 -187 70.5t-70 175.5z" />
    <glyph glyph-name="periodcentered" unicode="&#xb7;" horiz-adv-x="236" 
d="M118 329q25 0 42.5 -17.5t17.5 -42.5t-17.5 -42.5t-42.5 -17.5t-42.5 17.5t-17.5 42.5t17.5 42.5t42.5 17.5z" />
    <glyph glyph-name="cedilla" unicode="&#xb8;" horiz-adv-x="411" 
d="M147 -126l49 150l43 -14l-29 -87q10 2 30 2q44 0 77 -29t33 -75q0 -49 -36 -82t-98 -33q-48 0 -86.5 25.5t-52.5 51.5l42 29q12 -20 38 -37t59 -17t55 16.5t22 46.5t-21 48.5t-51 18.5q-41 0 -68 -18z" />
    <glyph glyph-name="onesuperior" unicode="&#xb9;" horiz-adv-x="123" 
d="M24 825h67v-312h-34v278h-33v34z" />
    <glyph glyph-name="ordmasculine" unicode="&#xba;" horiz-adv-x="474" 
d="M239 840q76 0 126.5 -47t50.5 -121t-50 -121.5t-127 -47.5q-78 0 -127.5 47.5t-49.5 121.5t50.5 121t126.5 47zM239 793q-53 0 -87.5 -34.5t-34.5 -86.5q0 -53 34 -87.5t88 -34.5q53 0 87 34.5t34 87.5q0 52 -34.5 86.5t-86.5 34.5z" />
    <glyph glyph-name="guillemotright" unicode="&#xbb;" horiz-adv-x="550" 
d="M285 488l51 40l195 -250l-195 -250l-51 40l164 210zM35 488l51 40l195 -250l-195 -250l-51 40l164 210z" />
    <glyph glyph-name="onequarter" unicode="&#xbc;" horiz-adv-x="757" 
d="M123 1h-62l480 824h61zM382 149v22l226 308h53v-283h56v-47h-56v-149h-51v149h-228zM453 196h157v210zM65 825h104v-479h-53v426h-51v53z" />
    <glyph glyph-name="onehalf" unicode="&#xbd;" horiz-adv-x="913" 
d="M123 0h-62l480 825h62zM490 336q0 45 45.5 95.5t114.5 50.5q81 0 123 -47.5t42 -110.5q0 -17 -4 -33.5t-14 -34l-18.5 -31.5t-26.5 -32.5l-28.5 -29.5t-34.5 -31l-33.5 -28l-36.5 -30t-34 -27h239v-47h-340v25q8 7 47.5 37.5l61.5 48.5t57.5 50.5t55.5 56.5t36 53.5
t16 52.5q0 42 -29.5 76.5t-78.5 34.5q-45 0 -79.5 -40t-34.5 -77zM65 825h104v-480h-53v427h-51v53z" />
    <glyph glyph-name="threequarters" unicode="&#xbe;" horiz-adv-x="911" 
d="M277 1h-61l479 824h61zM63 715q3 42 37 77.5t97 35.5q56 0 95 -37t39 -90q0 -35 -19 -64t-49 -42q35 -12 56 -43.5t21 -72.5q0 -59 -40.5 -97.5t-108.5 -38.5q-73 0 -109.5 35.5t-43.5 84.5l49 19q13 -91 104 -91q45 0 70.5 24.5t25.5 63.5q0 41 -28.5 68.5t-67.5 27.5
l-17 -2v38h17q37 0 64 26t27 64q0 34 -25.5 58.5t-60.5 24.5q-39 0 -62.5 -24t-27.5 -61zM536 149v22l226 308h53v-283h56v-47h-56v-149h-51v149h-228zM607 196h157v210z" />
    <glyph glyph-name="questiondown" unicode="&#xbf;" horiz-adv-x="583" 
d="M551 -43q-5 -100 -72.5 -166t-181.5 -66q-118 0 -187.5 74.5t-69.5 171.5q0 92 61 164.5t172 82.5v128h82v-207q-17 5 -50 5q-87 0 -134 -50t-47 -123q0 -72 46 -119t127 -47q82 0 128.5 45t50.5 120zM314 460q-26 0 -43.5 18t-17.5 43t17.5 43t43.5 18t43.5 -18
t17.5 -43t-17.5 -43t-43.5 -18z" />
    <glyph glyph-name="Agrave" unicode="&#xc0;" horiz-adv-x="716" 
d="M316 825h84l326 -825h-99l-94 249h-350l-94 -249h-99zM215 330h286l-143 373zM191 999l49 65l149 -121l-31 -44z" />
    <glyph glyph-name="Aacute" unicode="&#xc1;" horiz-adv-x="716" 
d="M316 825h84l326 -825h-99l-94 249h-350l-94 -249h-99zM215 330h286l-143 373zM327 944l149 121l49 -65l-167 -100z" />
    <glyph glyph-name="Acircumflex" unicode="&#xc2;" horiz-adv-x="716" 
d="M316 825h84l326 -825h-99l-94 249h-350l-94 -249h-99zM215 330h286l-143 373zM169 948l189 139l189 -139l-36 -49l-153 112l-153 -112z" />
    <glyph glyph-name="Atilde" unicode="&#xc3;" horiz-adv-x="716" 
d="M316 825h84l326 -825h-99l-94 249h-350l-94 -249h-99zM215 330h286l-143 373zM99 1008q65 107 154 107q61 0 125 -48q44 -35 85 -35q61 0 105 78l49 -43q-65 -107 -154 -107q-61 0 -125 48q-44 35 -85 35q-61 0 -105 -78z" />
    <glyph glyph-name="Adieresis" unicode="&#xc4;" horiz-adv-x="716" 
d="M316 825h84l326 -825h-99l-94 249h-350l-94 -249h-99zM215 330h286l-143 373zM241 1061q21 0 36 -15t15 -36t-15 -36t-36 -15t-36 15t-15 36t15 36t36 15zM475 1061q21 0 36 -15t15 -36t-15 -36t-36 -15t-36 15t-15 36t15 36t36 15z" />
    <glyph glyph-name="Aring" unicode="&#xc5;" horiz-adv-x="716" 
d="M316 825h84l326 -825h-99l-94 249h-350l-94 -249h-99zM215 330h286l-143 373zM235 1045q0 47 35.5 77.5t87.5 30.5t87.5 -30.5t35.5 -77.5q0 -48 -34.5 -78.5t-88.5 -30.5q-55 0 -89 30.5t-34 78.5zM291 1045q0 -27 18.5 -44.5t48.5 -17.5t48.5 17.5t18.5 44.5
q0 26 -19 43.5t-48 17.5t-48 -17.5t-19 -43.5z" />
    <glyph glyph-name="AE" unicode="&#xc6;" horiz-adv-x="857" 
d="M330 825h467v-81h-332v-290h320v-81h-320v-292h332v-81h-424v249h-189l-98 -249h-99zM216 330h157v397z" />
    <glyph glyph-name="Ccedilla" unicode="&#xc7;" horiz-adv-x="797" 
d="M382 -126l37 115q-158 24 -261.5 143t-103.5 280q0 179 126 303.5t309 124.5q162 0 268 -84l-42 -77q-35 28 -91.5 49t-122.5 21q-157 0 -252 -98.5t-95 -238.5t95 -238.5t252 -98.5q66 0 122.5 21t91.5 49l42 -77q-106 -84 -268 -84q-4 0 -12 0.5t-12 0.5l-20 -62
q10 2 30 2q44 0 77 -29t33 -75q0 -49 -36 -82t-98 -33q-48 0 -86.5 25.5t-52.5 51.5l42 29q12 -20 38 -37t59 -17t55 16.5t22 46.5t-21 48.5t-51 18.5q-41 0 -68 -18z" />
    <glyph glyph-name="Egrave" unicode="&#xc8;" horiz-adv-x="578" 
d="M94 825h424v-81h-332v-290h320v-81h-320v-292h332v-81h-424v825zM177 1000l49 65l149 -121l-31 -44z" />
    <glyph glyph-name="Eacute" unicode="&#xc9;" horiz-adv-x="578" 
d="M94 825h424v-81h-332v-290h320v-81h-320v-292h332v-81h-424v825zM237 944l149 121l49 -65l-167 -100z" />
    <glyph glyph-name="Ecircumflex" unicode="&#xca;" horiz-adv-x="578" 
d="M94 825h424v-81h-332v-290h320v-81h-320v-292h332v-81h-424v825zM117 948l189 139l189 -139l-36 -49l-153 112l-153 -112z" />
    <glyph glyph-name="Edieresis" unicode="&#xcb;" horiz-adv-x="578" 
d="M94 825h424v-81h-332v-290h320v-81h-320v-292h332v-81h-424v825zM189 1062q21 0 36 -15t15 -36t-15 -36t-36 -15t-36 15t-15 36t15 36t36 15zM423 1062q21 0 36 -15t15 -36t-15 -36t-36 -15t-36 15t-15 36t15 36t36 15z" />
    <glyph glyph-name="Igrave" unicode="&#xcc;" horiz-adv-x="280" 
d="M94 825h92v-825h-92v825zM-27 999l49 65l149 -121l-31 -44z" />
    <glyph glyph-name="Iacute" unicode="&#xcd;" horiz-adv-x="280" 
d="M94 825h92v-825h-92v825zM109 944l149 121l49 -65l-167 -100z" />
    <glyph glyph-name="Icircumflex" unicode="&#xce;" horiz-adv-x="280" 
d="M94 825h92v-825h-92v825zM-49 948l189 139l189 -139l-36 -49l-153 112l-153 -112z" />
    <glyph glyph-name="Idieresis" unicode="&#xcf;" horiz-adv-x="280" 
d="M94 825h92v-825h-92v825zM23 1062q21 0 36 -15t15 -36t-15 -36t-36 -15t-36 15t-15 36t15 36t36 15zM257 1062q21 0 36 -15t15 -36t-15 -36t-36 -15t-36 15t-15 36t15 36t36 15z" />
    <glyph glyph-name="Eth" unicode="&#xd0;" horiz-adv-x="757" 
d="M94 825h193q173 0 294.5 -117.5t121.5 -294.5q0 -178 -121.5 -295.5t-294.5 -117.5h-193v375h-82v75h82v375zM186 743v-293h205v-75h-205v-293h92q138 0 233 94.5t95 236.5q0 141 -95.5 235.5t-232.5 94.5h-92z" />
    <glyph glyph-name="Ntilde" unicode="&#xd1;" horiz-adv-x="800" 
d="M94 825h92l428 -669v669h92v-825h-92l-428 669v-669h-92v825zM141 1009q65 107 154 107q61 0 125 -48q44 -35 85 -35q61 0 105 78l49 -43q-65 -107 -154 -107q-61 0 -125 48q-44 35 -85 35q-61 0 -105 -78z" />
    <glyph glyph-name="Ograve" unicode="&#xd2;" horiz-adv-x="940" 
d="M341 1000l49 65l149 -121l-31 -44zM153 412q0 -141 90 -240t227 -99t227 99t90 240t-90 240t-227 99t-227 -99t-90 -240zM54 412q0 179 119.5 303.5t296.5 124.5t296.5 -124.5t119.5 -303.5t-119.5 -303.5t-296.5 -124.5t-296.5 124.5t-119.5 303.5z" />
    <glyph glyph-name="Oacute" unicode="&#xd3;" horiz-adv-x="940" 
d="M401 944l149 121l49 -65l-167 -100zM153 412q0 -141 90 -240t227 -99t227 99t90 240t-90 240t-227 99t-227 -99t-90 -240zM54 412q0 179 119.5 303.5t296.5 124.5t296.5 -124.5t119.5 -303.5t-119.5 -303.5t-296.5 -124.5t-296.5 124.5t-119.5 303.5z" />
    <glyph glyph-name="Ocircumflex" unicode="&#xd4;" horiz-adv-x="940" 
d="M281 948l189 139l189 -139l-36 -49l-153 112l-153 -112zM153 412q0 -141 90 -240t227 -99t227 99t90 240t-90 240t-227 99t-227 -99t-90 -240zM54 412q0 179 119.5 303.5t296.5 124.5t296.5 -124.5t119.5 -303.5t-119.5 -303.5t-296.5 -124.5t-296.5 124.5t-119.5 303.5z
" />
    <glyph glyph-name="Otilde" unicode="&#xd5;" horiz-adv-x="940" 
d="M211 1002q65 107 154 107q61 0 125 -48q44 -35 85 -35q61 0 105 78l49 -43q-65 -107 -154 -107q-61 0 -125 48q-44 35 -85 35q-61 0 -105 -78zM153 412q0 -141 90 -240t227 -99t227 99t90 240t-90 240t-227 99t-227 -99t-90 -240zM54 412q0 179 119.5 303.5t296.5 124.5
t296.5 -124.5t119.5 -303.5t-119.5 -303.5t-296.5 -124.5t-296.5 124.5t-119.5 303.5z" />
    <glyph glyph-name="Odieresis" unicode="&#xd6;" horiz-adv-x="940" 
d="M353 1062q21 0 36 -15t15 -36t-15 -36t-36 -15t-36 15t-15 36t15 36t36 15zM587 1062q21 0 36 -15t15 -36t-15 -36t-36 -15t-36 15t-15 36t15 36t36 15zM153 412q0 -141 90 -240t227 -99t227 99t90 240t-90 240t-227 99t-227 -99t-90 -240zM54 412q0 179 119.5 303.5
t296.5 124.5t296.5 -124.5t119.5 -303.5t-119.5 -303.5t-296.5 -124.5t-296.5 124.5t-119.5 303.5z" />
    <glyph glyph-name="multiply" unicode="&#xd7;" horiz-adv-x="578" 
d="M56 595l53 52l180 -180l180 180l53 -52l-180 -181l180 -181l-53 -52l-180 180l-180 -180l-53 52l180 181z" />
    <glyph glyph-name="Oslash" unicode="&#xd8;" horiz-adv-x="940" 
d="M54 412q0 179 119.5 303.5t296.5 124.5q129 0 233 -71l51 65l59 -44l-53 -68q126 -126 126 -310q0 -179 -119.5 -303.5t-296.5 -124.5q-130 0 -234 71l-50 -63l-58 44l52 66q-126 124 -126 310zM787 412q0 138 -86 235l-408 -519q77 -55 177 -55q137 0 227 99t90 240z
M153 412q0 -139 85 -235l408 519q-79 55 -176 55q-137 0 -227 -99t-90 -240z" />
    <glyph glyph-name="Ugrave" unicode="&#xd9;" horiz-adv-x="750" 
d="M574 825h92v-530q0 -153 -74.5 -232t-216.5 -79t-216.5 79t-74.5 232v530h92v-508q0 -124 49 -183t150 -59t150 59t49 183v508zM256 1000l49 65l149 -121l-31 -44z" />
    <glyph glyph-name="Uacute" unicode="&#xda;" horiz-adv-x="750" 
d="M574 825h92v-530q0 -153 -74.5 -232t-216.5 -79t-216.5 79t-74.5 232v530h92v-508q0 -124 49 -183t150 -59t150 59t49 183v508zM296 944l149 121l49 -65l-167 -100z" />
    <glyph glyph-name="Ucircumflex" unicode="&#xdb;" horiz-adv-x="750" 
d="M574 825h92v-530q0 -153 -74.5 -232t-216.5 -79t-216.5 79t-74.5 232v530h92v-508q0 -124 49 -183t150 -59t150 59t49 183v508zM186 948l189 139l189 -139l-36 -49l-153 112l-153 -112z" />
    <glyph glyph-name="Udieresis" unicode="&#xdc;" horiz-adv-x="750" 
d="M574 825h92v-530q0 -153 -74.5 -232t-216.5 -79t-216.5 79t-74.5 232v530h92v-508q0 -124 49 -183t150 -59t150 59t49 183v508zM258 1062q21 0 36 -15t15 -36t-15 -36t-36 -15t-36 15t-15 36t15 36t36 15zM492 1062q21 0 36 -15t15 -36t-15 -36t-36 -15t-36 15t-15 36
t15 36t36 15z" />
    <glyph glyph-name="Yacute" unicode="&#xdd;" horiz-adv-x="644" 
d="M-10 825h111l221 -369l221 369h111l-286 -466v-359h-92v359zM243 944l149 121l49 -65l-167 -100z" />
    <glyph glyph-name="Thorn" unicode="&#xde;" horiz-adv-x="853" 
d="M94 825h92v-175h134q123 0 194.5 -62.5t71.5 -173.5t-72.5 -178t-193.5 -67h-134v-169h-92v825zM186 576v-331h110q89 0 141 44.5t52 122.5t-52 121t-141 43h-110z" />
    <glyph glyph-name="germandbls" unicode="&#xdf;" horiz-adv-x="643" 
d="M106 645q0 97 67.5 163.5t162.5 66.5q99 0 165.5 -65.5t66.5 -161.5q0 -64 -33 -114t-89 -74q69 -27 110.5 -85.5t41.5 -135.5q0 -105 -76.5 -180t-186.5 -75h-71v82h54q89 0 138.5 52.5t49.5 123.5q0 70 -45 121t-112 56q-54 4 -85 4v70q45 0 87 6q56 5 94.5 47.5
t38.5 101.5q0 65 -42 108t-106 43t-103.5 -48t-39.5 -124v-627h-87v357h-66v71h66v217z" />
    <glyph glyph-name="agrave" unicode="&#xe0;" 
d="M54 256q0 117 73 194.5t183 77.5q67 0 120.5 -30.5t84.5 -83.5v98h88v-512h-88v101q-31 -54 -85 -85.5t-120 -31.5q-110 0 -183 77.5t-73 194.5zM146 256q0 -85 52.5 -140.5t133.5 -55.5t133.5 55.5t52.5 140.5q0 86 -52.5 141t-133.5 55q-80 0 -133 -55t-53 -141z
M210 687l49 65l149 -121l-31 -44z" />
    <glyph glyph-name="aacute" unicode="&#xe1;" 
d="M54 256q0 117 73 194.5t183 77.5q67 0 120.5 -30.5t84.5 -83.5v98h88v-512h-88v101q-31 -54 -85 -85.5t-120 -31.5q-110 0 -183 77.5t-73 194.5zM146 256q0 -85 52.5 -140.5t133.5 -55.5t133.5 55.5t52.5 140.5q0 86 -52.5 141t-133.5 55q-80 0 -133 -55t-53 -141z
M250 631l149 121l49 -65l-167 -100z" />
    <glyph glyph-name="acircumflex" unicode="&#xe2;" 
d="M54 256q0 117 73 194.5t183 77.5q67 0 120.5 -30.5t84.5 -83.5v98h88v-512h-88v101q-31 -54 -85 -85.5t-120 -31.5q-110 0 -183 77.5t-73 194.5zM146 256q0 -85 52.5 -140.5t133.5 -55.5t133.5 55.5t52.5 140.5q0 86 -52.5 141t-133.5 55q-80 0 -133 -55t-53 -141z
M140 636l189 139l189 -139l-36 -49l-153 112l-153 -112z" />
    <glyph glyph-name="atilde" unicode="&#xe3;" 
d="M54 256q0 117 73 194.5t183 77.5q67 0 120.5 -30.5t84.5 -83.5v98h88v-512h-88v101q-31 -54 -85 -85.5t-120 -31.5q-110 0 -183 77.5t-73 194.5zM146 256q0 -85 52.5 -140.5t133.5 -55.5t133.5 55.5t52.5 140.5q0 86 -52.5 141t-133.5 55q-80 0 -133 -55t-53 -141z
M70 659q65 107 154 107q61 0 125 -48q44 -35 85 -35q61 0 105 78l49 -43q-65 -107 -154 -107q-61 0 -125 48q-44 35 -85 35q-61 0 -105 -78z" />
    <glyph glyph-name="adieresis" unicode="&#xe4;" 
d="M54 256q0 117 73 194.5t183 77.5q67 0 120.5 -30.5t84.5 -83.5v98h88v-512h-88v101q-31 -54 -85 -85.5t-120 -31.5q-110 0 -183 77.5t-73 194.5zM146 256q0 -85 52.5 -140.5t133.5 -55.5t133.5 55.5t52.5 140.5q0 86 -52.5 141t-133.5 55q-80 0 -133 -55t-53 -141z
M211 750q21 0 36 -15t15 -36t-15 -36t-36 -15t-36 15t-15 36t15 36t36 15zM445 750q21 0 36 -15t15 -36t-15 -36t-36 -15t-36 15t-15 36t15 36t36 15z" />
    <glyph glyph-name="aring" unicode="&#xe5;" 
d="M54 256q0 117 73 194.5t183 77.5q67 0 120.5 -30.5t84.5 -83.5v98h88v-512h-88v101q-31 -54 -85 -85.5t-120 -31.5q-110 0 -183 77.5t-73 194.5zM146 256q0 -85 52.5 -140.5t133.5 -55.5t133.5 55.5t52.5 140.5q0 86 -52.5 141t-133.5 55q-80 0 -133 -55t-53 -141z
M205 733q0 47 35.5 77.5t87.5 30.5t87.5 -30.5t35.5 -77.5q0 -48 -34.5 -78.5t-88.5 -30.5q-55 0 -89 30.5t-34 78.5zM261 733q0 -27 18.5 -44.5t48.5 -17.5t48.5 17.5t18.5 44.5q0 26 -19 43.5t-48 17.5t-48 -17.5t-19 -43.5z" />
    <glyph glyph-name="ae" unicode="&#xe6;" horiz-adv-x="1033" 
d="M82 144q0 73 55 120t141 47q114 0 168 -63v58q0 71 -41.5 111t-110.5 40q-96 0 -145 -56l-35 58q22 28 70.5 48.5t109.5 20.5q149 0 210 -102q37 47 92 74.5t118 27.5q114 0 191 -76t77 -196v-10h-449q0 -85 56 -137.5t136 -52.5q113 0 176 89l65 -34q-78 -127 -246 -127
q-144 0 -223 107q-73 -107 -216 -107q-85 0 -142 44.5t-57 115.5zM168 151q0 -48 41 -78.5t100 -30.5t100 31t41 78q0 46 -40.5 76t-100.5 30q-59 0 -100 -29t-41 -77zM535 301h361q-7 72 -58 118.5t-122 46.5q-73 0 -123.5 -47t-57.5 -118z" />
    <glyph glyph-name="ccedilla" unicode="&#xe7;" horiz-adv-x="554" 
d="M227 -126l38 117q-93 21 -153 94t-60 171q0 116 81 194t196 78q128 0 175 -55l-41 -65q-33 36 -124 36q-85 0 -141 -52t-56 -136t56 -136t141 -52q92 0 123 36l42 -66q-49 -54 -175 -54q-13 0 -19 1l-20 -62q10 2 30 2q44 0 77 -29t33 -75q0 -49 -36 -82t-98 -33
q-48 0 -86.5 25.5t-52.5 51.5l42 29q12 -20 38 -37t59 -17t55 16.5t22 46.5t-21 48.5t-51 18.5q-41 0 -68 -18z" />
    <glyph glyph-name="egrave" unicode="&#xe8;" horiz-adv-x="640" 
d="M51 256q0 113 79 192.5t191 79.5q114 0 191 -76t77 -196v-10h-449q0 -85 56 -137.5t136 -52.5q113 0 176 89l65 -34q-78 -127 -246 -127q-116 0 -196 78t-80 194zM142 301h361q-7 71 -57.5 113t-122.5 42q-74 0 -124 -43t-57 -112zM201 687l49 65l149 -121l-31 -44z" />
    <glyph glyph-name="eacute" unicode="&#xe9;" horiz-adv-x="640" 
d="M51 256q0 113 79 192.5t191 79.5q114 0 191 -76t77 -196v-10h-449q0 -85 56 -137.5t136 -52.5q113 0 176 89l65 -34q-78 -127 -246 -127q-116 0 -196 78t-80 194zM142 301h361q-7 71 -57.5 113t-122.5 42q-74 0 -124 -43t-57 -112zM241 631l149 121l49 -65l-167 -100z
" />
    <glyph glyph-name="ecircumflex" unicode="&#xea;" horiz-adv-x="640" 
d="M51 256q0 113 79 192.5t191 79.5q114 0 191 -76t77 -196v-10h-449q0 -85 56 -137.5t136 -52.5q113 0 176 89l65 -34q-78 -127 -246 -127q-116 0 -196 78t-80 194zM142 301h361q-7 71 -57.5 113t-122.5 42q-74 0 -124 -43t-57 -112zM131 636l189 139l189 -139l-36 -49
l-153 112l-153 -112z" />
    <glyph glyph-name="edieresis" unicode="&#xeb;" horiz-adv-x="640" 
d="M51 256q0 113 79 192.5t191 79.5q114 0 191 -76t77 -196v-10h-449q0 -85 56 -137.5t136 -52.5q113 0 176 89l65 -34q-78 -127 -246 -127q-116 0 -196 78t-80 194zM142 301h361q-7 71 -57.5 113t-122.5 42q-74 0 -124 -43t-57 -112zM203 709q21 0 36 -15t15 -36t-15 -36
t-36 -15t-36 15t-15 36t15 36t36 15zM437 709q21 0 36 -15t15 -36t-15 -36t-36 -15t-36 15t-15 36t15 36t36 15z" />
    <glyph glyph-name="igrave" unicode="&#xec;" horiz-adv-x="268" 
d="M90 512h88v-512h-88v512zM-33 687l49 65l149 -121l-31 -44z" />
    <glyph glyph-name="iacute" unicode="&#xed;" horiz-adv-x="268" 
d="M90 512h88v-512h-88v512zM252 752l49 -65l-167 -100l-31 44z" />
    <glyph glyph-name="icircumflex" unicode="&#xee;" horiz-adv-x="268" 
d="M90 512h88v-512h-88v512zM-55 636l189 139l189 -139l-36 -49l-153 112l-153 -112z" />
    <glyph glyph-name="idieresis" unicode="&#xef;" horiz-adv-x="268" 
d="M90 512h88v-512h-88v512zM17 713q21 0 36 -15t15 -36t-15 -36t-36 -15t-36 15t-15 36t15 36t36 15zM251 713q21 0 36 -15t15 -36t-15 -36t-36 -15t-36 15t-15 36t15 36t36 15z" />
    <glyph glyph-name="eth" unicode="&#xf0;" horiz-adv-x="692" 
d="M58 256q0 119 80 195.5t187 76.5q53 0 101.5 -22t77.5 -62q-42 167 -163 263l-79 -79l-43 43l69 69q-59 36 -125 59l22 76q96 -35 163 -75l75 75l42 -43l-65 -65q233 -184 233 -511q0 -119 -81.5 -195.5t-205.5 -76.5q-125 0 -206.5 76.5t-81.5 195.5zM149 256
q0 -86 55 -141t141 -55t141.5 55.5t55.5 140.5t-56.5 140.5t-140.5 55.5q-85 0 -140.5 -55.5t-55.5 -140.5z" />
    <glyph glyph-name="ntilde" unicode="&#xf1;" horiz-adv-x="626" 
d="M90 512h88v-67q24 39 68.5 61t89.5 22q95 0 151.5 -53t56.5 -148v-327h-88v303q0 72 -35 113.5t-102 41.5q-61 0 -101 -40t-40 -91v-327h-88v512zM58 656q65 107 154 107q61 0 125 -48q44 -35 85 -35q61 0 105 78l49 -43q-65 -107 -154 -107q-61 0 -125 48q-44 35 -85 35
q-61 0 -105 -78z" />
    <glyph glyph-name="ograve" unicode="&#xf2;" horiz-adv-x="675" 
d="M218 687l49 65l149 -121l-31 -44zM141 256q0 -86 55.5 -141t140.5 -55t140.5 55t55.5 141t-55.5 141t-140.5 55t-140.5 -55t-55.5 -141zM51 256q0 120 81.5 196t204.5 76t204.5 -76t81.5 -196t-81.5 -196t-204.5 -76t-204.5 76t-81.5 196z" />
    <glyph glyph-name="oacute" unicode="&#xf3;" horiz-adv-x="675" 
d="M258 631l149 121l49 -65l-167 -100zM141 256q0 -86 55.5 -141t140.5 -55t140.5 55t55.5 141t-55.5 141t-140.5 55t-140.5 -55t-55.5 -141zM51 256q0 120 81.5 196t204.5 76t204.5 -76t81.5 -196t-81.5 -196t-204.5 -76t-204.5 76t-81.5 196z" />
    <glyph glyph-name="ocircumflex" unicode="&#xf4;" horiz-adv-x="675" 
d="M148 636l189 139l189 -139l-36 -49l-153 112l-153 -112zM141 256q0 -86 55.5 -141t140.5 -55t140.5 55t55.5 141t-55.5 141t-140.5 55t-140.5 -55t-55.5 -141zM51 256q0 120 81.5 196t204.5 76t204.5 -76t81.5 -196t-81.5 -196t-204.5 -76t-204.5 76t-81.5 196z" />
    <glyph glyph-name="otilde" unicode="&#xf5;" horiz-adv-x="675" 
d="M78 645q65 107 154 107q61 0 125 -48q44 -35 85 -35q61 0 105 78l49 -43q-65 -107 -154 -107q-61 0 -125 48q-44 35 -85 35q-61 0 -105 -78zM141 256q0 -86 55.5 -141t140.5 -55t140.5 55t55.5 141t-55.5 141t-140.5 55t-140.5 -55t-55.5 -141zM51 256q0 120 81.5 196
t204.5 76t204.5 -76t81.5 -196t-81.5 -196t-204.5 -76t-204.5 76t-81.5 196z" />
    <glyph glyph-name="odieresis" unicode="&#xf6;" horiz-adv-x="675" 
d="M220 750q21 0 36 -15t15 -36t-15 -36t-36 -15t-36 15t-15 36t15 36t36 15zM454 750q21 0 36 -15t15 -36t-15 -36t-36 -15t-36 15t-15 36t15 36t36 15zM141 256q0 -86 55.5 -141t140.5 -55t140.5 55t55.5 141t-55.5 141t-140.5 55t-140.5 -55t-55.5 -141zM51 256
q0 120 81.5 196t204.5 76t204.5 -76t81.5 -196t-81.5 -196t-204.5 -76t-204.5 76t-81.5 196z" />
    <glyph glyph-name="divide" unicode="&#xf7;" horiz-adv-x="654" 
d="M327 704q20 0 34 -14t14 -34t-14 -34t-34 -14t-34 14t-14 34t14 34t34 14zM71 453h512v-76h-512v76zM327 222q20 0 34 -14t14 -34t-14 -34t-34 -14t-34 14t-14 34t14 34t34 14z" />
    <glyph glyph-name="oslash" unicode="&#xf8;" horiz-adv-x="675" 
d="M51 256q0 120 81.5 196t204.5 76q125 0 205 -77l96 78l29 -35l-95 -77q51 -70 51 -161q0 -120 -81.5 -196t-204.5 -76q-124 0 -205 76l-96 -77l-29 35l95 77q-51 69 -51 161zM533 256q0 58 -29 106l-307 -248q56 -54 140 -54q85 0 140.5 55t55.5 141zM141 256
q0 -60 28 -107l307 249q-54 54 -139 54t-140.5 -55t-55.5 -141z" />
    <glyph glyph-name="ugrave" unicode="&#xf9;" horiz-adv-x="614" 
d="M82 512h88v-281q0 -99 33.5 -136.5t103.5 -37.5t103.5 37.5t33.5 136.5v281h88v-298q0 -124 -54.5 -177t-170.5 -53t-170.5 53t-54.5 177v298zM188 687l49 65l149 -121l-31 -44z" />
    <glyph glyph-name="uacute" unicode="&#xfa;" horiz-adv-x="614" 
d="M82 512h88v-281q0 -99 33.5 -136.5t103.5 -37.5t103.5 37.5t33.5 136.5v281h88v-298q0 -124 -54.5 -177t-170.5 -53t-170.5 53t-54.5 177v298zM228 631l149 121l49 -65l-167 -100z" />
    <glyph glyph-name="ucircumflex" unicode="&#xfb;" horiz-adv-x="614" 
d="M82 512h88v-281q0 -99 33.5 -136.5t103.5 -37.5t103.5 37.5t33.5 136.5v281h88v-298q0 -124 -54.5 -177t-170.5 -53t-170.5 53t-54.5 177v298zM118 636l189 139l189 -139l-36 -49l-153 112l-153 -112z" />
    <glyph glyph-name="udieresis" unicode="&#xfc;" horiz-adv-x="614" 
d="M82 512h88v-281q0 -99 33.5 -136.5t103.5 -37.5t103.5 37.5t33.5 136.5v281h88v-298q0 -124 -54.5 -177t-170.5 -53t-170.5 53t-54.5 177v298zM190 709q21 0 36 -15t15 -36t-15 -36t-36 -15t-36 15t-15 36t15 36t36 15zM424 709q21 0 36 -15t15 -36t-15 -36t-36 -15
t-36 15t-15 36t15 36t36 15z" />
    <glyph glyph-name="yacute" unicode="&#xfd;" horiz-adv-x="560" 
d="M-5 512h101l194 -401l174 401h101l-360 -772h-99l133 282zM211 631l149 121l49 -65l-167 -100z" />
    <glyph glyph-name="thorn" unicode="&#xfe;" horiz-adv-x="690" 
d="M90 -260v1121h88v-447q31 53 84.5 83.5t120.5 30.5q110 0 183 -77.5t73 -194.5t-73 -194.5t-183 -77.5q-66 0 -120 31.5t-85 85.5v-361h-88zM547 256q0 86 -53 141t-133 55q-81 0 -133.5 -55t-52.5 -141q0 -85 52.5 -140.5t133.5 -55.5t133.5 55.5t52.5 140.5z" />
    <glyph glyph-name="ydieresis" unicode="&#xff;" horiz-adv-x="560" 
d="M-5 512h101l194 -401l174 401h101l-360 -772h-99l133 282zM173 709q21 0 36 -15t15 -36t-15 -36t-36 -15t-36 15t-15 36t15 36t36 15zM407 709q21 0 36 -15t15 -36t-15 -36t-36 -15t-36 15t-15 36t15 36t36 15z" />
    <glyph glyph-name="Amacron" unicode="&#x100;" horiz-adv-x="716" 
d="M316 825h84l326 -825h-99l-94 249h-350l-94 -249h-99zM215 330h286l-143 373zM154 1008h408v-62h-408v62z" />
    <glyph glyph-name="amacron" unicode="&#x101;" 
d="M54 256q0 117 73 194.5t183 77.5q67 0 120.5 -30.5t84.5 -83.5v98h88v-512h-88v101q-31 -54 -85 -85.5t-120 -31.5q-110 0 -183 77.5t-73 194.5zM146 256q0 -85 52.5 -140.5t133.5 -55.5t133.5 55.5t52.5 140.5q0 86 -52.5 141t-133.5 55q-80 0 -133 -55t-53 -141z
M125 696h408v-62h-408v62z" />
    <glyph glyph-name="Abreve" unicode="&#x102;" horiz-adv-x="716" 
d="M316 825h84l326 -825h-99l-94 249h-350l-94 -249h-99zM215 330h286l-143 373zM502 1120l66 -16q-13 -73 -70.5 -118.5t-139.5 -45.5t-139.5 45.5t-70.5 118.5l66 16q9 -44 46 -82t98 -38t98 38t46 82z" />
    <glyph glyph-name="abreve" unicode="&#x103;" 
d="M54 256q0 117 73 194.5t183 77.5q67 0 120.5 -30.5t84.5 -83.5v98h88v-512h-88v101q-31 -54 -85 -85.5t-120 -31.5q-110 0 -183 77.5t-73 194.5zM146 256q0 -85 52.5 -140.5t133.5 -55.5t133.5 55.5t52.5 140.5q0 86 -52.5 141t-133.5 55q-80 0 -133 -55t-53 -141z
M473 783l66 -16q-13 -73 -70.5 -118.5t-139.5 -45.5t-139.5 45.5t-70.5 118.5l66 16q9 -44 46 -82t98 -38t98 38t46 82z" />
    <glyph glyph-name="Aogonek" unicode="&#x104;" horiz-adv-x="716" 
d="M316 825h84l326 -825h-41q-72 -83 -72 -151q0 -32 21.5 -51t53.5 -19q50 0 93 47l39 -29l-5.5 -8t-16 -17t-27.5 -21.5t-38.5 -17.5t-49.5 -8q-54 0 -90 32.5t-36 84.5q0 62 80 158h-10l-94 249h-350l-94 -249h-99zM215 330h286l-143 373z" />
    <glyph glyph-name="aogonek" unicode="&#x105;" 
d="M436 -158q0 62 80 158h-1v101q-31 -54 -85 -85.5t-120 -31.5q-110 0 -183 77.5t-73 194.5t73 194.5t183 77.5q67 0 120.5 -30.5t84.5 -83.5v98h88v-512h-39q-72 -83 -72 -151q0 -32 21.5 -51t53.5 -19q50 0 93 47l39 -29l-5.5 -8t-16 -17t-27.5 -21.5t-38.5 -17.5
t-49.5 -8q-54 0 -90 32.5t-36 84.5zM146 256q0 -85 52.5 -140.5t133.5 -55.5t133.5 55.5t52.5 140.5q0 86 -52.5 141t-133.5 55q-80 0 -133 -55t-53 -141z" />
    <glyph glyph-name="Cacute" unicode="&#x106;" horiz-adv-x="797" 
d="M54 412q0 179 126 303.5t309 124.5q162 0 268 -84l-42 -77q-35 28 -91.5 49t-122.5 21q-157 0 -252 -98.5t-95 -238.5t95 -238.5t252 -98.5q66 0 122.5 21t91.5 49l42 -77q-106 -84 -268 -84q-183 0 -309 124.5t-126 303.5zM336 944l149 121l49 -65l-167 -100z" />
    <glyph glyph-name="cacute" unicode="&#x107;" horiz-adv-x="553" 
d="M51 256q0 116 81 194t196 78q120 0 175 -55l-41 -65q-33 36 -124 36q-85 0 -141 -52t-56 -136t56 -136t141 -52q92 0 123 36l42 -66q-57 -54 -175 -54q-115 0 -196 78.5t-81 193.5zM198 631l149 121l49 -65l-167 -100z" />
    <glyph glyph-name="Ccaron" unicode="&#x10c;" horiz-adv-x="797" 
d="M54 412q0 179 126 303.5t309 124.5q162 0 268 -84l-42 -77q-35 28 -91.5 49t-122.5 21q-157 0 -252 -98.5t-95 -238.5t95 -238.5t252 -98.5q66 0 122.5 21t91.5 49l42 -77q-106 -84 -268 -84q-183 0 -309 124.5t-126 303.5zM270 1038l36 49l153 -112l153 112l36 -49
l-189 -139z" />
    <glyph glyph-name="ccaron" unicode="&#x10d;" horiz-adv-x="553" 
d="M51 256q0 116 81 194t196 78q120 0 175 -55l-41 -65q-33 36 -124 36q-85 0 -141 -52t-56 -136t56 -136t141 -52q92 0 123 36l42 -66q-57 -54 -175 -54q-115 0 -196 78.5t-81 193.5zM109 726l36 49l153 -112l153 112l36 -49l-189 -139z" />
    <glyph glyph-name="Dcaron" unicode="&#x10e;" horiz-adv-x="757" 
d="M94 825h193q172 0 294 -117.5t122 -294.5q0 -178 -121.5 -295.5t-294.5 -117.5h-193v825zM186 743v-661h92q138 0 232.5 94.5t95.5 236.5q0 141 -95 235.5t-233 94.5h-92zM167 1038l36 49l153 -112l153 112l36 -49l-189 -139z" />
    <glyph glyph-name="dcaron" unicode="&#x10f;" 
d="M54 256q0 117 73 194.5t183 77.5q67 0 120.5 -30.5t84.5 -83.5v446h88v-860h-88v101q-31 -54 -85 -85.5t-120 -31.5q-110 0 -183 77.5t-73 194.5zM146 256q0 -85 52.5 -140.5t133.5 -55.5t133.5 55.5t52.5 140.5q0 86 -52.5 141t-133.5 55q-80 0 -133 -55t-53 -141z
M720 825q21 0 35.5 -15t14.5 -35q0 -88 -74 -149l-19 15q31 48 35 87q-18 3 -30 16t-12 31q0 20 15 35t35 15z" />
    <glyph glyph-name="Dcroat" unicode="&#x110;" horiz-adv-x="757" 
d="M94 825h193q172 0 294 -117.5t122 -294.5q0 -178 -121.5 -295.5t-294.5 -117.5h-193v375h-82v75h82v375zM186 743v-293h205v-75h-205v-293h92q138 0 232.5 94.5t95.5 236.5q0 141 -95 235.5t-233 94.5h-92z" />
    <glyph glyph-name="dcroat" unicode="&#x111;" 
d="M54 256q0 117 73 194.5t183 77.5q67 0 120.5 -30.5t84.5 -83.5v242h-191v59h191v145h88v-145h83v-59h-83v-656h-88v101q-31 -54 -85 -85.5t-120 -31.5q-110 0 -183 77.5t-73 194.5zM146 256q0 -85 52.5 -140.5t133.5 -55.5t133.5 55.5t52.5 140.5q0 86 -52.5 141
t-133.5 55q-80 0 -133 -55t-53 -141z" />
    <glyph glyph-name="Emacron" unicode="&#x112;" horiz-adv-x="578" 
d="M94 825h424v-81h-332v-290h320v-81h-320v-292h332v-81h-424v825zM102 1008h408v-62h-408v62z" />
    <glyph glyph-name="emacron" unicode="&#x113;" horiz-adv-x="640" 
d="M51 256q0 113 79 192.5t191 79.5q114 0 191 -76t77 -196v-10h-449q0 -85 56 -137.5t136 -52.5q113 0 176 89l65 -34q-78 -127 -246 -127q-116 0 -196 78t-80 194zM142 301h361q-7 71 -57.5 113t-122.5 42q-74 0 -124 -43t-57 -112zM116 696h408v-62h-408v62z" />
    <glyph glyph-name="Edotaccent" unicode="&#x116;" horiz-adv-x="578" 
d="M94 825h424v-81h-332v-290h320v-81h-320v-292h332v-81h-424v825zM306 1021q21 0 36 -15t15 -36t-15 -36t-36 -15t-36 15t-15 36t15 36t36 15z" />
    <glyph glyph-name="edotaccent" unicode="&#x117;" horiz-adv-x="640" 
d="M51 256q0 113 79 192.5t191 79.5q114 0 191 -76t77 -196v-10h-449q0 -85 56 -137.5t136 -52.5q113 0 176 89l65 -34q-78 -127 -246 -127q-116 0 -196 78t-80 194zM142 301h361q-7 71 -57.5 113t-122.5 42q-74 0 -124 -43t-57 -112zM320 709q21 0 36 -15t15 -36t-15 -36
t-36 -15t-36 15t-15 36t15 36t36 15z" />
    <glyph glyph-name="Eogonek" unicode="&#x118;" horiz-adv-x="578" 
d="M94 825h424v-81h-332v-290h320v-81h-320v-292h332v-81h-115q-72 -83 -72 -151q0 -32 21.5 -51t53.5 -19q50 0 93 47l39 -29l-5.5 -8t-16 -17t-27.5 -21.5t-38.5 -17.5t-49.5 -8q-54 0 -90 32.5t-36 84.5q0 62 80 158h-261v825z" />
    <glyph glyph-name="eogonek" unicode="&#x119;" horiz-adv-x="640" 
d="M51 256q0 113 79 192.5t191 79.5q114 0 191 -76t77 -196v-10h-449q0 -85 56 -137.5t136 -52.5q113 0 176 89l65 -34q-62 -101 -182 -121q-63 -80 -63 -141q0 -32 21.5 -51t53.5 -19q50 0 93 47l39 -29l-5.5 -8t-16 -17t-27.5 -21.5t-38.5 -17.5t-49.5 -8q-54 0 -90 32.5
t-36 84.5q0 57 67 142h-12q-116 0 -196 78t-80 194zM142 301h361q-7 71 -57.5 113t-122.5 42q-74 0 -124 -43t-57 -112z" />
    <glyph glyph-name="Ecaron" unicode="&#x11a;" horiz-adv-x="578" 
d="M94 825h424v-81h-332v-290h320v-81h-320v-292h332v-81h-424v825zM117 1038l36 49l153 -112l153 112l36 -49l-189 -139z" />
    <glyph glyph-name="ecaron" unicode="&#x11b;" horiz-adv-x="640" 
d="M51 256q0 113 79 192.5t191 79.5q114 0 191 -76t77 -196v-10h-449q0 -85 56 -137.5t136 -52.5q113 0 176 89l65 -34q-78 -127 -246 -127q-116 0 -196 78t-80 194zM142 301h361q-7 71 -57.5 113t-122.5 42q-74 0 -124 -43t-57 -112zM131 726l36 49l153 -112l153 112
l36 -49l-189 -139z" />
    <glyph glyph-name="Gcommaaccent" unicode="&#x122;" horiz-adv-x="887" 
d="M456 -40q21 0 35.5 -15t14.5 -35q0 -88 -74 -149l-19 15q31 48 35 87q-18 3 -30 16t-12 31q0 20 15 35t35 15zM54 411q0 180 115 304.5t287 124.5q201 0 318 -141l-60 -66q-93 124 -254 124q-131 0 -219.5 -100.5t-88.5 -245.5q0 -142 90.5 -242.5t217.5 -100.5
q113 0 198 70t85 181v24h-287v74h381v-80q0 -155 -109 -254t-272 -99q-167 0 -284.5 125t-117.5 302z" />
    <glyph glyph-name="gcommaaccent" unicode="&#x123;" 
d="M54 256q0 117 73 194.5t183 77.5q67 0 120.5 -30.5t84.5 -83.5v98h88v-526q0 -125 -74 -193t-206 -68q-200 0 -266 149l73 34q22 -47 72.5 -77.5t120.5 -30.5q85 0 138.5 50.5t53.5 135.5v115q-31 -54 -85 -85.5t-120 -31.5q-110 0 -183 77.5t-73 194.5zM146 256
q0 -85 52.5 -140.5t133.5 -55.5t133.5 55.5t52.5 140.5q0 86 -52.5 141t-133.5 55q-80 0 -133 -55t-53 -141zM329 607q-21 0 -35.5 15t-14.5 35q0 88 74 149l19 -15q-31 -48 -35 -87q18 -3 30 -16t12 -31q0 -20 -15 -35t-35 -15z" />
    <glyph glyph-name="Imacron" unicode="&#x12a;" horiz-adv-x="280" 
d="M94 825h92v-825h-92v825zM-64 1008h408v-62h-408v62z" />
    <glyph glyph-name="imacron" unicode="&#x12b;" horiz-adv-x="268" 
d="M90 512h88v-512h-88v512zM-70 696h408v-62h-408v62z" />
    <glyph glyph-name="Iogonek" unicode="&#x12e;" horiz-adv-x="280" 
d="M35 -158q0 62 80 158h-21v825h92v-825h-23q-72 -83 -72 -151q0 -32 21.5 -51t53.5 -19q50 0 93 47l39 -29l-5.5 -8t-16 -17t-27.5 -21.5t-38.5 -17.5t-49.5 -8q-54 0 -90 32.5t-36 84.5z" />
    <glyph glyph-name="iogonek" unicode="&#x12f;" horiz-adv-x="268" 
d="M29 -158q0 62 80 158h-19v512h88v-512h-21q-72 -83 -72 -151q0 -32 21.5 -51t53.5 -19q50 0 93 47l39 -29l-5.5 -8t-16 -17t-27.5 -21.5t-38.5 -17.5t-49.5 -8q-54 0 -90 32.5t-36 84.5zM134 733q25 0 42.5 -18t17.5 -43t-17.5 -42.5t-42.5 -17.5t-42.5 17.5t-17.5 42.5
q0 26 17.5 43.5t42.5 17.5z" />
    <glyph glyph-name="dotlessi" unicode="&#x131;" horiz-adv-x="268" 
d="M90 512h88v-512h-88v512z" />
    <glyph glyph-name="Kcommaaccent" unicode="&#x136;" horiz-adv-x="690" 
d="M94 825h92v-385l361 385h111l-370 -396l412 -429h-127l-348 362l-39 -42v-320h-92v825zM354 -40q21 0 35.5 -15t14.5 -35q0 -88 -74 -149l-19 15q31 48 35 87q-18 3 -30 16t-12 31q0 20 15 35t35 15z" />
    <glyph glyph-name="kcommaaccent" unicode="&#x137;" horiz-adv-x="512" 
d="M90 860h88v-547l177 199h113l-188 -207l253 -305h-111l-198 243l-46 -50v-193h-88v860zM294 -40q21 0 35.5 -15t14.5 -35q0 -88 -74 -149l-19 15q31 48 35 87q-18 3 -30 16t-12 31q0 20 15 35t35 15z" />
    <glyph glyph-name="Lacute" unicode="&#x139;" horiz-adv-x="555" 
d="M94 825h92v-744h336v-81h-428v825zM109 944l149 121l49 -65l-167 -100z" />
    <glyph glyph-name="lacute" unicode="&#x13a;" horiz-adv-x="268" 
d="M90 860h88v-860h-88v860zM103 978l149 121l49 -65l-167 -100z" />
    <glyph glyph-name="Lcommaaccent" unicode="&#x13b;" horiz-adv-x="555" 
d="M94 825h92v-744h336v-81h-428v825zM302 -40q21 0 35.5 -15t14.5 -35q0 -88 -74 -149l-19 15q31 48 35 87q-18 3 -30 16t-12 31q0 20 15 35t35 15z" />
    <glyph glyph-name="lcommaaccent" unicode="&#x13c;" horiz-adv-x="268" 
d="M90 860h88v-860h-88v860zM133 -40q21 0 35.5 -15t14.5 -35q0 -88 -74 -149l-19 15q31 48 35 87q-18 3 -30 16t-12 31q0 20 15 35t35 15z" />
    <glyph glyph-name="Lcaron" unicode="&#x13d;" horiz-adv-x="555" 
d="M94 825h92v-744h336v-81h-428v825zM429 825q21 0 35.5 -15t14.5 -35q0 -88 -74 -149l-19 15q31 48 35 87q-18 3 -30 16t-12 31q0 20 15 35t35 15z" />
    <glyph glyph-name="lcaron" unicode="&#x13e;" horiz-adv-x="268" 
d="M90 860h88v-860h-88v860zM290 825q21 0 35.5 -15t14.5 -35q0 -88 -74 -149l-19 15q31 48 35 87q-18 3 -30 16t-12 31q0 20 15 35t35 15z" />
    <glyph glyph-name="Lslash" unicode="&#x141;" horiz-adv-x="555" 
d="M94 825h92v-331l107 84v-75l-107 -84v-338h336v-81h-428v346l-81 -63v75l81 63v404z" />
    <glyph glyph-name="lslash" unicode="&#x142;" horiz-adv-x="268" 
d="M90 860h88v-327l88 69v-75l-88 -69v-458h-88v389l-88 -69v75l88 69v396z" />
    <glyph glyph-name="Nacute" unicode="&#x143;" horiz-adv-x="800" 
d="M94 825h92l428 -669v669h92v-825h-92l-428 669v-669h-92v825zM450 1065l49 -65l-167 -100l-31 44z" />
    <glyph glyph-name="nacute" unicode="&#x144;" horiz-adv-x="626" 
d="M90 512h88v-67q24 39 68.5 61t89.5 22q95 0 151.5 -53t56.5 -148v-327h-88v303q0 72 -35 113.5t-102 41.5q-61 0 -101 -40t-40 -91v-327h-88v512zM386 752l49 -65l-167 -100l-31 44z" />
    <glyph glyph-name="Ncommaaccent" unicode="&#x145;" horiz-adv-x="800" 
d="M94 825h92l428 -669v669h92v-825h-92l-428 669v-669h-92v825zM400 -40q21 0 35.5 -15t14.5 -35q0 -88 -74 -149l-19 15q31 48 35 87q-18 3 -30 16t-12 31q0 20 15 35t35 15z" />
    <glyph glyph-name="ncommaaccent" unicode="&#x146;" horiz-adv-x="626" 
d="M90 512h88v-67q24 39 68.5 61t89.5 22q95 0 151.5 -53t56.5 -148v-327h-88v303q0 72 -35 113.5t-102 41.5q-61 0 -101 -40t-40 -91v-327h-88v512zM317 -40q21 0 35.5 -15t14.5 -35q0 -88 -74 -149l-19 15q31 48 35 87q-18 3 -30 16t-12 31q0 20 15 35t35 15z" />
    <glyph glyph-name="Ncaron" unicode="&#x147;" horiz-adv-x="800" 
d="M94 825h92l428 -669v669h92v-825h-92l-428 669v-669h-92v825zM211 1038l36 49l153 -112l153 112l36 -49l-189 -139z" />
    <glyph glyph-name="ncaron" unicode="&#x148;" horiz-adv-x="626" 
d="M90 512h88v-67q24 39 68.5 61t89.5 22q95 0 151.5 -53t56.5 -148v-327h-88v303q0 72 -35 113.5t-102 41.5q-61 0 -101 -40t-40 -91v-327h-88v512zM128 726l36 49l153 -112l153 112l36 -49l-189 -139z" />
    <glyph glyph-name="Omacron" unicode="&#x14c;" horiz-adv-x="940" 
d="M266 1008h408v-62h-408v62zM153 412q0 -141 90 -240t227 -99t227 99t90 240t-90 240t-227 99t-227 -99t-90 -240zM54 412q0 179 119.5 303.5t296.5 124.5t296.5 -124.5t119.5 -303.5t-119.5 -303.5t-296.5 -124.5t-296.5 124.5t-119.5 303.5z" />
    <glyph glyph-name="omacron" unicode="&#x14d;" horiz-adv-x="675" 
d="M133 696h408v-62h-408v62zM141 256q0 -86 55.5 -141t140.5 -55t140.5 55t55.5 141t-55.5 141t-140.5 55t-140.5 -55t-55.5 -141zM51 256q0 120 81.5 196t204.5 76t204.5 -76t81.5 -196t-81.5 -196t-204.5 -76t-204.5 76t-81.5 196z" />
    <glyph glyph-name="Ohungarumlaut" unicode="&#x150;" horiz-adv-x="940" 
d="M306 951l149 121l49 -65l-167 -100zM497 951l148 121l49 -65l-166 -100zM153 412q0 -141 90 -240t227 -99t227 99t90 240t-90 240t-227 99t-227 -99t-90 -240zM54 412q0 179 119.5 303.5t296.5 124.5t296.5 -124.5t119.5 -303.5t-119.5 -303.5t-296.5 -124.5
t-296.5 124.5t-119.5 303.5z" />
    <glyph glyph-name="ohungarumlaut" unicode="&#x151;" horiz-adv-x="675" 
d="M163 631l149 121l49 -65l-167 -100zM354 631l148 121l49 -65l-166 -100zM141 256q0 -86 55.5 -141t140.5 -55t140.5 55t55.5 141t-55.5 141t-140.5 55t-140.5 -55t-55.5 -141zM51 256q0 120 81.5 196t204.5 76t204.5 -76t81.5 -196t-81.5 -196t-204.5 -76t-204.5 76
t-81.5 196z" />
    <glyph glyph-name="OE" unicode="&#x152;" horiz-adv-x="969" 
d="M51 412q0 126 62.5 221.5t163.5 143.5t223 48h409v-81h-332v-290h320v-81h-320v-292h332v-81h-444q-177 0 -295.5 117.5t-118.5 294.5zM150 412q0 -145 93.5 -237t241.5 -92v659q-142 0 -238.5 -93.5t-96.5 -236.5z" />
    <glyph glyph-name="oe" unicode="&#x153;" horiz-adv-x="1118" 
d="M337 528q83 0 142.5 -36.5t90.5 -102.5q34 64 94.5 101.5t134.5 37.5q114 0 191 -76t77 -196v-10h-449q0 -85 56 -137.5t136 -52.5q113 0 176 89l65 -34q-78 -127 -246 -127q-78 0 -139 37t-95 101q-30 -65 -90 -101.5t-144 -36.5q-125 0 -205.5 76.5t-80.5 195.5
q0 120 81.5 196t204.5 76zM337 452q-85 0 -140.5 -55.5t-55.5 -140.5q0 -86 55 -141t141 -55t141 55t55 141q0 85 -55.5 140.5t-140.5 55.5zM620 301h361q-7 72 -58 118.5t-122 46.5q-73 0 -123.5 -47t-57.5 -118z" />
    <glyph glyph-name="Racute" unicode="&#x154;" horiz-adv-x="645" 
d="M94 825h226q123 0 194.5 -62.5t71.5 -173.5q0 -98 -57.5 -162.5t-157.5 -76.5l274 -350h-117l-261 343h-81v-343h-92v825zM186 751v-332h110q89 0 142 45t53 123t-53 121t-142 43h-110zM220 936l149 121l49 -65l-167 -100z" />
    <glyph glyph-name="racute" unicode="&#x155;" horiz-adv-x="418" 
d="M157 631l149 121l49 -65l-167 -100zM90 512h88v-75q17 35 58 63t93 28q37 0 93 -20l-37 -74q-47 17 -78 17q-62 0 -95.5 -43.5t-33.5 -79.5v-328h-88v512z" />
    <glyph glyph-name="Rcommaaccent" unicode="&#x156;" horiz-adv-x="645" 
d="M350 -40q21 0 35.5 -15t14.5 -35q0 -88 -74 -149l-19 15q31 48 35 87q-18 3 -30 16t-12 31q0 20 15 35t35 15zM94 825h226q123 0 194.5 -62.5t71.5 -173.5q0 -98 -57.5 -162.5t-157.5 -76.5l274 -350h-117l-261 343h-81v-343h-92v825zM186 751v-332h110q89 0 142 45
t53 123t-53 121t-142 43h-110z" />
    <glyph glyph-name="rcommaaccent" unicode="&#x157;" horiz-adv-x="418" 
d="M134 -40q21 0 35.5 -15t14.5 -35q0 -88 -74 -149l-19 15q31 48 35 87q-18 3 -30 16t-12 31q0 20 15 35t35 15zM90 512h88v-75q17 35 58 63t93 28q37 0 93 -20l-37 -74q-47 17 -78 17q-62 0 -95.5 -43.5t-33.5 -79.5v-328h-88v512z" />
    <glyph glyph-name="Rcaron" unicode="&#x158;" horiz-adv-x="645" 
d="M94 825h226q123 0 194.5 -62.5t71.5 -173.5q0 -98 -57.5 -162.5t-157.5 -76.5l274 -350h-117l-261 343h-81v-343h-92v825zM186 751v-332h110q89 0 142 45t53 123t-53 121t-142 43h-110zM116 1038l36 49l153 -112l153 112l36 -49l-189 -139z" />
    <glyph glyph-name="rcaron" unicode="&#x159;" horiz-adv-x="418" 
d="M90 512h88v-75q17 35 58 63t93 28q37 0 93 -20l-37 -74q-47 17 -78 17q-62 0 -95.5 -43.5t-33.5 -79.5v-328h-88v512zM67 726l36 49l153 -112l153 112l36 -49l-189 -139z" />
    <glyph glyph-name="Sacute" unicode="&#x15a;" horiz-adv-x="653" 
d="M263 944l149 121l49 -65l-167 -100zM108 612q0 99 69 163.5t165 64.5q141 0 213 -114l-70 -44q-42 74 -137 74q-72 0 -114.5 -42t-42.5 -99q0 -50 40 -82t112 -58q59 -21 101.5 -42.5t80.5 -51t57.5 -69.5t19.5 -89q0 -115 -74.5 -177t-192.5 -62q-97 0 -167 40t-107 111
l76 47q26 -51 79 -82t113 -31q76 0 130.5 37.5t54.5 112.5q0 62 -55.5 103.5t-168.5 82.5q-182 67 -182 207z" />
    <glyph glyph-name="sacute" unicode="&#x15b;" horiz-adv-x="476" 
d="M164 632l149 121l49 -65l-167 -100zM253 528q59 0 96 -23.5t52 -57.5l-55 -35q-26 51 -93 51q-48 0 -76 -20t-28 -51q0 -29 29 -48.5t86 -36.5q167 -51 167 -165q0 -85 -58 -121.5t-140 -36.5q-142 0 -187 111l60 38q15 -37 50 -59.5t77 -22.5q48 0 83 21t35 68
q0 38 -40 64.5t-110 47.5q-52 16 -88.5 49t-36.5 87q0 62 47.5 101t129.5 39z" />
    <glyph glyph-name="Scedilla" unicode="&#x15e;" horiz-adv-x="653" 
d="M108 612q0 99 69 163.5t165 64.5q141 0 213 -114l-70 -44q-42 74 -137 74q-72 0 -114.5 -42t-42.5 -99q0 -50 40 -82t112 -58q59 -21 101.5 -42.5t80.5 -51t57.5 -69.5t19.5 -89q0 -113 -72 -175t-187 -64l-20 -61q10 2 30 2q44 0 77 -29t33 -75q0 -49 -36 -82t-98 -33
q-48 0 -86.5 25.5t-52.5 51.5l42 29q12 -20 38 -37t59 -17t55 16.5t22 46.5t-21 48.5t-51 18.5q-41 0 -68 -18l-6 4l36 112q-165 16 -235 149l76 47q26 -51 79 -82t113 -31q76 0 130.5 37.5t54.5 112.5q0 62 -55.5 103.5t-168.5 82.5q-182 67 -182 207z" />
    <glyph glyph-name="scedilla" unicode="&#x15f;" horiz-adv-x="479" 
d="M173 -126l36 111q-122 9 -163 110l60 38q15 -37 50 -59.5t77 -22.5q48 0 83 21t35 68q0 38 -40 64.5t-110 47.5q-52 16 -88.5 49t-36.5 87q0 62 47.5 101t129.5 39q59 0 96 -23.5t52 -57.5l-55 -35q-26 51 -93 51q-48 0 -76 -20t-28 -51q0 -29 29 -48.5t86 -36.5
q167 -51 167 -165q0 -79 -50 -116t-125 -41l-20 -62q10 2 30 2q44 0 77 -29t33 -75q0 -49 -36 -82t-98 -33q-48 0 -86.5 25.5t-52.5 51.5l42 29q12 -20 38 -37t59 -17t55 16.5t22 46.5t-21 48.5t-51 18.5q-41 0 -68 -18z" />
    <glyph glyph-name="Scaron" unicode="&#x160;" horiz-adv-x="653" 
d="M153 1038l36 49l153 -112l153 112l36 -49l-189 -139zM108 612q0 99 69 163.5t165 64.5q141 0 213 -114l-70 -44q-42 74 -137 74q-72 0 -114.5 -42t-42.5 -99q0 -50 40 -82t112 -58q59 -21 101.5 -42.5t80.5 -51t57.5 -69.5t19.5 -89q0 -115 -74.5 -177t-192.5 -62
q-97 0 -167 40t-107 111l76 47q26 -51 79 -82t113 -31q76 0 130.5 37.5t54.5 112.5q0 62 -55.5 103.5t-168.5 82.5q-182 67 -182 207z" />
    <glyph glyph-name="scaron" unicode="&#x161;" horiz-adv-x="479" 
d="M253 528q59 0 96 -23.5t52 -57.5l-55 -35q-26 51 -93 51q-48 0 -76 -20t-28 -51q0 -29 29 -48.5t86 -36.5q167 -51 167 -165q0 -85 -58 -121.5t-140 -36.5q-142 0 -187 111l60 38q15 -37 50 -59.5t77 -22.5q48 0 83 21t35 68q0 38 -40 64.5t-110 47.5q-52 16 -88.5 49
t-36.5 87q0 62 47.5 101t129.5 39zM64 726l36 49l153 -112l153 112l36 -49l-189 -139z" />
    <glyph glyph-name="Tcommaaccent" unicode="&#x162;" horiz-adv-x="586" 
d="M3 825h580v-81h-243v-744h-92v744h-245v81zM294 -52q21 0 35.5 -15t14.5 -35q0 -88 -74 -149l-19 15q31 48 35 87q-18 3 -30 16t-12 31q0 20 15 35t35 15z" />
    <glyph glyph-name="tcommaaccent" unicode="&#x163;" horiz-adv-x="335" 
d="M48 512h55v191h88v-191h125v-67h-125v-293q0 -90 60 -90q13 0 26 4t19 8l6 5l22 -71q-36 -24 -93 -24q-128 0 -128 155v306h-55v67zM210 -40q21 0 35.5 -15t14.5 -35q0 -88 -74 -149l-19 15q31 48 35 87q-18 3 -30 16t-12 31q0 20 15 35t35 15z" />
    <glyph glyph-name="Tcaron" unicode="&#x164;" horiz-adv-x="586" 
d="M3 825h580v-81h-243v-744h-92v744h-245v81zM105 1038l36 49l153 -112l153 112l36 -49l-189 -139z" />
    <glyph glyph-name="tcaron" unicode="&#x165;" horiz-adv-x="335" 
d="M48 512h55v191h88v-191h125v-67h-125v-293q0 -90 60 -90q13 0 26 4t19 8l6 5l22 -71q-36 -24 -93 -24q-128 0 -128 155v306h-55v67zM339 825q21 0 35.5 -15t14.5 -35q0 -88 -74 -149l-19 15q31 48 35 87q-18 3 -30 16t-12 31q0 20 15 35t35 15z" />
    <glyph glyph-name="Umacron" unicode="&#x16a;" horiz-adv-x="750" 
d="M574 825h92v-530q0 -153 -74.5 -232t-216.5 -79t-216.5 79t-74.5 232v530h92v-508q0 -124 49 -183t150 -59t150 59t49 183v508zM171 1008h408v-62h-408v62z" />
    <glyph glyph-name="umacron" unicode="&#x16b;" horiz-adv-x="614" 
d="M82 512h88v-281q0 -99 33.5 -136.5t103.5 -37.5t103.5 37.5t33.5 136.5v281h88v-298q0 -124 -54.5 -177t-170.5 -53t-170.5 53t-54.5 177v298zM103 696h408v-62h-408v62z" />
    <glyph glyph-name="Uring" unicode="&#x16e;" horiz-adv-x="750" 
d="M574 825h92v-530q0 -153 -74.5 -232t-216.5 -79t-216.5 79t-74.5 232v530h92v-508q0 -124 49 -183t150 -59t150 59t49 183v508zM252 1011q0 47 35.5 77.5t87.5 30.5t87.5 -30.5t35.5 -77.5q0 -48 -34.5 -78.5t-88.5 -30.5q-55 0 -89 30.5t-34 78.5zM308 1011
q0 -27 18.5 -44.5t48.5 -17.5t48.5 17.5t18.5 44.5q0 26 -19 43.5t-48 17.5t-48 -17.5t-19 -43.5z" />
    <glyph glyph-name="uring" unicode="&#x16f;" horiz-adv-x="614" 
d="M82 512h88v-281q0 -99 33.5 -136.5t103.5 -37.5t103.5 37.5t33.5 136.5v281h88v-298q0 -124 -54.5 -177t-170.5 -53t-170.5 53t-54.5 177v298zM184 731q0 47 35.5 77.5t87.5 30.5t87.5 -30.5t35.5 -77.5q0 -48 -34.5 -78.5t-88.5 -30.5q-55 0 -89 30.5t-34 78.5zM240 731
q0 -27 18.5 -44.5t48.5 -17.5t48.5 17.5t18.5 44.5q0 26 -19 43.5t-48 17.5t-48 -17.5t-19 -43.5z" />
    <glyph glyph-name="Uhungarumlaut" unicode="&#x170;" horiz-adv-x="750" 
d="M574 825h92v-530q0 -153 -74.5 -232t-216.5 -79t-216.5 79t-74.5 232v530h92v-508q0 -124 49 -183t150 -59t150 59t49 183v508zM211 951l149 121l49 -65l-167 -100zM402 951l148 121l49 -65l-166 -100z" />
    <glyph glyph-name="uhungarumlaut" unicode="&#x171;" horiz-adv-x="614" 
d="M82 512h88v-281q0 -99 33.5 -136.5t103.5 -37.5t103.5 37.5t33.5 136.5v281h88v-298q0 -124 -54.5 -177t-170.5 -53t-170.5 53t-54.5 177v298zM133 631l149 121l49 -65l-167 -100zM324 631l148 121l49 -65l-166 -100z" />
    <glyph glyph-name="Uogonek" unicode="&#x172;" horiz-adv-x="750" 
d="M268 -158q0 57 69 144q-124 11 -188.5 88.5t-64.5 220.5v530h92v-508q0 -124 49 -183t150 -59t150 59t49 183v508h92v-530q0 -151 -72.5 -230t-210.5 -81q-59 -75 -59 -135q0 -32 21.5 -51t53.5 -19q50 0 93 47l39 -29l-5.5 -8t-16 -17t-27.5 -21.5t-38.5 -17.5t-49.5 -8
q-54 0 -90 32.5t-36 84.5z" />
    <glyph glyph-name="uogonek" unicode="&#x173;" horiz-adv-x="615" 
d="M201 -158q0 58 68 144q-96 8 -141 61.5t-45 166.5v298h88v-281q0 -99 33.5 -136.5t103.5 -37.5t103.5 37.5t33.5 136.5v281h88v-298q0 -122 -53 -175t-164 -55q-59 -75 -59 -135q0 -32 21.5 -51t53.5 -19q50 0 93 47l39 -29l-5.5 -8t-16 -17t-27.5 -21.5t-38.5 -17.5
t-49.5 -8q-54 0 -90 32.5t-36 84.5z" />
    <glyph glyph-name="Ydieresis" unicode="&#x178;" horiz-adv-x="644" 
d="M-10 825h111l221 -369l221 369h111l-286 -466v-359h-92v359zM205 1062q21 0 36 -15t15 -36t-15 -36t-36 -15t-36 15t-15 36t15 36t36 15zM439 1062q21 0 36 -15t15 -36t-15 -36t-36 -15t-36 15t-15 36t15 36t36 15z" />
    <glyph glyph-name="Zacute" unicode="&#x179;" horiz-adv-x="758" 
d="M93 825h629l-521 -742h493v-83h-658l521 742h-464v83zM338 943l149 121l49 -65l-167 -100z" />
    <glyph glyph-name="zacute" unicode="&#x17a;" horiz-adv-x="563" 
d="M62 512h478l-361 -441h349v-71h-505l361 441h-322v71zM222 631l149 121l49 -65l-167 -100z" />
    <glyph glyph-name="Zdotaccent" unicode="&#x17b;" horiz-adv-x="758" 
d="M93 825h629l-521 -742h493v-83h-658l521 742h-464v83zM407 1021q21 0 36 -15t15 -36t-15 -36t-36 -15t-36 15t-15 36t15 36t36 15z" />
    <glyph glyph-name="zdotaccent" unicode="&#x17c;" horiz-adv-x="563" 
d="M62 512h478l-361 -441h349v-71h-505l361 441h-322v71zM301 750q21 0 36 -15t15 -36t-15 -36t-36 -15t-36 15t-15 36t15 36t36 15z" />
    <glyph glyph-name="Zcaron" unicode="&#x17d;" horiz-adv-x="758" 
d="M93 825h629l-521 -742h493v-83h-658l521 742h-464v83zM218 1038l36 49l153 -112l153 112l36 -49l-189 -139z" />
    <glyph glyph-name="zcaron" unicode="&#x17e;" horiz-adv-x="563" 
d="M62 512h478l-361 -441h349v-71h-505l361 441h-322v71zM111 726l36 49l153 -112l153 112l36 -49l-189 -139z" />
    <glyph glyph-name="Scommaaccent" unicode="&#x218;" horiz-adv-x="653" 
d="M335 -40q21 0 35.5 -15t14.5 -35q0 -88 -74 -149l-19 15q31 48 35 87q-18 3 -30 16t-12 31q0 20 15 35t35 15zM108 612q0 99 69 163.5t165 64.5q141 0 213 -114l-70 -44q-42 74 -137 74q-72 0 -114.5 -42t-42.5 -99q0 -50 40 -82t112 -58q59 -21 101.5 -42.5t80.5 -51
t57.5 -69.5t19.5 -89q0 -115 -74.5 -177t-192.5 -62q-97 0 -167 40t-107 111l76 47q26 -51 79 -82t113 -31q76 0 130.5 37.5t54.5 112.5q0 62 -55.5 103.5t-168.5 82.5q-182 67 -182 207z" />
    <glyph glyph-name="scommaaccent" unicode="&#x219;" horiz-adv-x="479" 
d="M233 -40q21 0 35.5 -15t14.5 -35q0 -88 -74 -149l-19 15q31 48 35 87q-18 3 -30 16t-12 31q0 20 15 35t35 15zM253 528q59 0 96 -23.5t52 -57.5l-55 -35q-26 51 -93 51q-48 0 -76 -20t-28 -51q0 -29 29 -48.5t86 -36.5q167 -51 167 -165q0 -85 -58 -121.5t-140 -36.5
q-142 0 -187 111l60 38q15 -37 50 -59.5t77 -22.5q48 0 83 21t35 68q0 38 -40 64.5t-110 47.5q-52 16 -88.5 49t-36.5 87q0 62 47.5 101t129.5 39z" />
    <glyph glyph-name="circumflex" unicode="&#x2c6;" horiz-adv-x="532" 
d="M77 701l189 139l189 -139l-36 -49l-153 112l-153 -112z" />
    <glyph glyph-name="caron" unicode="&#x2c7;" horiz-adv-x="478" 
d="M50 791l36 49l153 -112l153 112l36 -49l-189 -139z" />
    <glyph glyph-name="breve" unicode="&#x2d8;" horiz-adv-x="564" 
d="M426 840l66 -16q-13 -73 -70.5 -118.5t-139.5 -45.5t-139.5 45.5t-70.5 118.5l66 16q9 -44 46 -82t98 -38t98 38t46 82z" />
    <glyph glyph-name="dotaccent" unicode="&#x2d9;" horiz-adv-x="226" 
d="M113 750q21 0 36 -15t15 -36t-15 -36t-36 -15t-36 15t-15 36t15 36t36 15z" />
    <glyph glyph-name="ring" unicode="&#x2da;" horiz-adv-x="390" 
d="M72 733q0 47 35.5 77.5t87.5 30.5t87.5 -30.5t35.5 -77.5q0 -48 -34.5 -78.5t-88.5 -30.5q-55 0 -89 30.5t-34 78.5zM128 733q0 -27 18.5 -44.5t48.5 -17.5t48.5 17.5t18.5 44.5q0 26 -19 43.5t-48 17.5t-48 -17.5t-19 -43.5z" />
    <glyph glyph-name="ogonek" unicode="&#x2db;" horiz-adv-x="374" 
d="M83 -158q0 35 26 81t52 75l26 28l34 -15q-26 -27 -54 -73.5t-28 -88.5q0 -32 21.5 -51t53.5 -19q50 0 93 47l39 -29l-5.5 -8t-16 -17t-27.5 -21.5t-38.5 -17.5t-49.5 -8q-54 0 -90 32.5t-36 84.5z" />
    <glyph glyph-name="tilde" unicode="&#x2dc;" horiz-adv-x="580" 
d="M31 656q65 107 154 107q61 0 125 -48q44 -35 85 -35q61 0 105 78l49 -43q-65 -107 -154 -107q-61 0 -125 48q-44 35 -85 35q-61 0 -105 -78z" />
    <glyph glyph-name="hungarumlaut" unicode="&#x2dd;" horiz-adv-x="537" 
d="M74 719l149 121l49 -65l-167 -100zM265 719l148 121l49 -65l-166 -100z" />
    <glyph glyph-name="endash" unicode="&#x2013;" horiz-adv-x="577" 
d="M67 327h448v-75h-448v75z" />
    <glyph glyph-name="emdash" unicode="&#x2014;" horiz-adv-x="1011" 
d="M67 327h882v-75h-882v75z" />
    <glyph glyph-name="quoteleft" unicode="&#x2018;" horiz-adv-x="204" 
d="M43 676q0 94 82 164l23 -18q-33 -45 -39 -94q20 -4 33 -18.5t13 -33.5q0 -23 -16.5 -40t-39.5 -17t-39.5 17t-16.5 40z" />
    <glyph glyph-name="quoteright" unicode="&#x2019;" horiz-adv-x="204" 
d="M105 840q23 0 39.5 -16.5t16.5 -39.5q0 -96 -83 -165l-22 18q33 45 39 95q-20 3 -33 17.5t-13 34.5q0 23 16.5 39.5t39.5 16.5z" />
    <glyph glyph-name="quotesinglbase" unicode="&#x201a;" horiz-adv-x="212" 
d="M113 101q23 0 40 -17t17 -40q0 -93 -83 -164l-22 18q34 53 38 94q-19 4 -32 18.5t-13 33.5q0 23 16.5 40t38.5 17z" />
    <glyph glyph-name="quotedblleft" unicode="&#x201c;" horiz-adv-x="356" 
d="M195 676q0 95 83 164l22 -18q-33 -45 -39 -94q20 -4 33 -18.5t13 -33.5q0 -23 -16.5 -40t-39.5 -17t-39.5 17t-16.5 40zM43 676q0 94 82 164l23 -18q-33 -45 -39 -94q20 -4 33 -18.5t13 -33.5q0 -23 -16.5 -40t-39.5 -17t-39.5 17t-16.5 40z" />
    <glyph glyph-name="quotedblright" unicode="&#x201d;" horiz-adv-x="356" 
d="M155 783q0 -95 -83 -164l-22 18q33 45 39 94q-20 4 -33 18.5t-13 33.5q0 23 16.5 40t39.5 17t39.5 -17t16.5 -40zM307 783q0 -94 -82 -164l-23 18q33 45 39 94q-20 4 -33 18.5t-13 33.5q0 23 16.5 40t39.5 17t39.5 -17t16.5 -40z" />
    <glyph glyph-name="quotedblbase" unicode="&#x201e;" horiz-adv-x="352" 
d="M155 43q0 -95 -83 -164l-22 18q33 45 39 94q-20 4 -33 18.5t-13 33.5q0 23 16.5 40t39.5 17t39.5 -17t16.5 -40zM307 43q0 -94 -82 -164l-23 18q33 45 39 94q-20 4 -33 18.5t-13 33.5q0 23 16.5 40t39.5 17t39.5 -17t16.5 -40z" />
    <glyph glyph-name="dagger" unicode="&#x2020;" horiz-adv-x="429" 
d="M14 618h161v242h78v-242h163v-72h-163v-546h-78v546h-161v72z" />
    <glyph glyph-name="daggerdbl" unicode="&#x2021;" horiz-adv-x="429" 
d="M14 610h161v250h78v-250h163v-72h-163v-204h163v-72h-163v-262h-78v262h-161v72h161v204h-161v72z" />
    <glyph glyph-name="bullet" unicode="&#x2022;" horiz-adv-x="389" 
d="M194 453q40 0 68.5 -28t28.5 -68t-28.5 -68t-68.5 -28q-39 0 -67.5 28t-28.5 68t28.5 68t67.5 28z" />
    <glyph glyph-name="ellipsis" unicode="&#x2026;" horiz-adv-x="639" 
d="M118 104q25 0 42.5 -17.5t17.5 -42.5t-17.5 -42.5t-42.5 -17.5t-42.5 17.5t-17.5 42.5t17.5 42.5t42.5 17.5zM522 104q25 0 42.5 -17.5t17.5 -42.5t-17.5 -42.5t-42.5 -17.5t-42.5 17.5t-17.5 42.5t17.5 42.5t42.5 17.5zM320 104q25 0 42.5 -17.5t17.5 -42.5t-17.5 -42.5
t-42.5 -17.5t-42.5 17.5t-17.5 42.5t17.5 42.5t42.5 17.5z" />
    <glyph glyph-name="perthousand" unicode="&#x2030;" horiz-adv-x="1483" 
d="M227 0l480 825h61l-480 -825h-61zM41 642q0 87 59 142t149 55t149 -55t59 -142q0 -86 -59.5 -141.5t-148.5 -55.5t-148.5 55.5t-59.5 141.5zM104 642q0 -63 41.5 -104t103.5 -41t103.5 41t41.5 104q0 64 -41 104.5t-104 40.5t-104 -40.5t-41 -104.5zM536 181q0 87 59 142
t149 55t149 -55t59 -142q0 -86 -59.5 -141.5t-148.5 -55.5t-148.5 55.5t-59.5 141.5zM599 181q0 -63 41.5 -104t103.5 -41t103.5 41t41.5 104q0 64 -41 104.5t-104 40.5t-104 -40.5t-41 -104.5zM1029 181q0 87 59 142t149 55t149 -55t59 -142q0 -86 -59.5 -141.5
t-148.5 -55.5t-148.5 55.5t-59.5 141.5zM1092 181q0 -63 41.5 -104t103.5 -41t103.5 41t41.5 104q0 64 -41 104.5t-104 40.5t-104 -40.5t-41 -104.5z" />
    <glyph glyph-name="guilsinglleft" unicode="&#x2039;" horiz-adv-x="300" 
d="M19 278l195 250l51 -40l-164 -210l164 -210l-51 -40z" />
    <glyph glyph-name="guilsinglright" unicode="&#x203a;" horiz-adv-x="300" 
d="M35 488l51 40l195 -250l-195 -250l-51 40l164 210z" />
    <glyph glyph-name="fraction" unicode="&#x2044;" horiz-adv-x="264" 
d="M-139 0l480 825h62l-480 -825h-62z" />
    <glyph glyph-name="Euro" unicode="&#x20ac;" horiz-adv-x="827" 
d="M10 524h87q38 138 155.5 227t264.5 89q90 0 159 -25t108 -59l-43 -78q-34 30 -90 50.5t-122 20.5q-115 0 -203 -62.5t-120 -162.5h427v-57h-447q-5 -30 -5 -54q0 -27 5 -57h447v-57h-427q31 -100 117 -162t206 -62q67 0 123 20.5t90 50.5l42 -78q-38 -34 -107 -58.5
t-160 -24.5q-151 0 -266.5 87.5t-153.5 226.5h-87v57h75q-4 24 -4 57q0 30 4 54h-75v57z" />
    <glyph glyph-name="trademark" unicode="&#x2122;" horiz-adv-x="506" 
d="M18 825h181v-26h-76v-232h-29v232h-76v26zM236 825h30l73 -194l74 194h30l33 -258h-30l-26 205l-70 -192h-20l-71 192l-26 -205h-29zM236 825h31l73 -194l73 194h31l31 -258h-28l-26 205l-71 -192h-20l-71 192l-26 -205h-29z" />
    <glyph glyph-name="minus" unicode="&#x2212;" horiz-adv-x="618" 
d="M53 452h512v-76h-512v76z" />
    <glyph glyph-name="notequal" unicode="&#x2260;" horiz-adv-x="618" 
d="M53 555h280l87 150h62l-87 -150h170v-76h-215l-75 -129h290v-76h-334l-89 -154h-61l89 154h-117v76h160l75 129h-235v76z" />
    <glyph glyph-name="lessequal" unicode="&#x2264;" horiz-adv-x="627" 
d="M27 133h547v-76h-547v76zM27 538l547 252v-70l-456 -211l456 -210v-71l-547 252v58z" />
    <glyph glyph-name="greaterequal" unicode="&#x2265;" horiz-adv-x="627" 
d="M53 133h547v-76h-547v76zM600 538v-58l-547 -252v71l456 210l-456 211v70z" />
    <glyph glyph-name="M.1" horiz-adv-x="916" 
d="M94 825h104l260 -621l260 621h104v-825h-92v622l-241 -580h-62l-241 580v-622h-92v825z" />
    <glyph glyph-name="Q.1" horiz-adv-x="942" 
d="M435 -60q-47 0 -88.5 -20t-58.5 -40l-18 -19l-22 33q7 10 19 24.5t48.5 41.5t70.5 32q-148 28 -239.5 144.5t-91.5 275.5q0 180 122 304t294 124t294 -124t122 -304q0 -150 -81 -262t-216 -150q-1 -1 21 -6t54 -10t53 -5q38 0 69 13.5t43 27.5l12 13l29 -62l-5.5 -8.5
t-16.5 -20t-29 -25t-44 -19.5t-59 -9q-54 0 -131.5 25.5t-150.5 25.5zM154 412q0 -144 86.5 -242t230.5 -98t230.5 98t86.5 242q0 141 -90.5 240t-226.5 99t-226.5 -99t-90.5 -240z" />
    <glyph glyph-name="R.1" horiz-adv-x="684" 
d="M94 825h226q123 0 194.5 -62.5t71.5 -173.5q0 -98 -57.5 -162.5t-157.5 -76.5l191 -248q28 -33 52 -33t43 15l27 -69q-28 -30 -85 -30q-29 0 -54.5 13.5t-36.5 27.5l-11 14l-230 303h-81v-343h-92v825zM186 751v-332h110q89 0 142 45t53 123t-53 121t-142 43h-110z" />
    <glyph glyph-name="a.1" horiz-adv-x="624" 
d="M82 144q0 73 55 120t141 47q114 0 168 -63v58q0 71 -41.5 111t-110.5 40q-96 0 -145 -56l-35 58q22 28 70.5 48.5t109.5 20.5q107 0 173.5 -57t66.5 -161v-310h-88v46q-59 -62 -165 -62q-85 0 -142 44.5t-57 115.5zM168 151q0 -48 41 -78.5t100 -30.5t100 31t41 78
q0 46 -40.5 76t-100.5 30q-59 0 -100 -29t-41 -77z" />
    <glyph glyph-name="j.1" horiz-adv-x="268" 
d="M90 512h88v-772h-88v772zM134 733q26 0 43.5 -17.5t17.5 -43.5t-17.5 -43.5t-43.5 -17.5t-43.5 17.5t-17.5 43.5t17.5 43.5t43.5 17.5z" />
    <glyph glyph-name="t.1" horiz-adv-x="296" 
d="M91 703h88v-191h113v-67h-113v-445h-88v445h-67v67h67v191z" />
    <glyph glyph-name="u.1" horiz-adv-x="626" 
d="M82 512h87v-303q0 -72 35.5 -113.5t102.5 -41.5q60 0 100 40t40 91v327h88v-512h-88v67q-24 -39 -68.5 -61t-89.5 -22q-95 0 -151 53t-56 148v327z" />
    </font>
</defs>
</svg>
